SplineFontDB: 3.0
FontName: greciliae-base
FullName: greciliae
FamilyName: greciliae
Weight: Medium
Copyright: Greciliae font\nCopyright (C) 2007 Matthew Spencer with Reserved Font Name "Caeciliae",\nCopyright (C) 2007-2015 The Gregorio Project (see CONTRIBUTORS.md)\nwith Reserved Font Name "Greciliae".\n\nThis Font Software is licensed under the SIL Open Font License, Version 1.1.\nThis license is also available with a FAQ at:\nhttp://scripts.sil.org/OFL
UComments: "2007-4-12: Created." 
Version: 1.2
ItalicAngle: 0
UnderlinePosition: -204
UnderlineWidth: 102
Ascent: 800
Descent: 200
LayerCount: 2
Layer: 0 0 "Back"  1
Layer: 1 0 "Fore"  0
XUID: [1021 341 828717519 15204965]
FSType: 0
OS2Version: 0
OS2_WeightWidthSlopeOnly: 0
OS2_UseTypoMetrics: 1
CreationTime: 1176402534
ModificationTime: 1450962825
OS2TypoAscent: 0
OS2TypoAOffset: 1
OS2TypoDescent: 0
OS2TypoDOffset: 1
OS2TypoLinegap: 90
OS2WinAscent: 0
OS2WinAOffset: 1
OS2WinDescent: 0
OS2WinDOffset: 1
HheadAscent: 0
HheadAOffset: 1
HheadDescent: 0
HheadDOffset: 1
OS2Vendor: 'PfEd'
MarkAttachClasses: 1
DEI: 91125
Encoding: Custom
UnicodeInterp: none
NameList: Adobe Glyph List
DisplaySize: -96
AntiAlias: 1
FitToEm: 1
WinInfo: 144 16 4
BeginPrivate: 0
EndPrivate
Grid
-1000 194 m 0
 2000 194 l 0
18 1300 m 0
 18 -700 l 0
-1000 200 m 0
 2000 200 l 0
147.812 1300 m 0
 147.812 -700 l 0
166.375 1300 m 0
 166.375 -700 l 0
-1000 302.758 m 0
 2000 302.758 l 0
-1000 -57 m 0
 2000 -57 l 0
-1000 -173 m 0
 2000 -173 l 0
-1000 -166 m 0
 2000 -166 l 0
148 1300 m 0
 148 -700 l 0
17.75 1300 m 0
 17.75 -700 l 0
EndSplineSet
TeXData: 1 0 0 346030 173015 115343 0 1048576 115343 783286 444596 497025 792723 393216 433062 380633 303038 157286 324010 404750 52429 2506097 1059062 262144
BeginChars: 379 170

StartChar: Punctum
Encoding: 0 -1 0
Width: 166
VWidth: 2612
Flags: W
HStem: -8.40039 177.1<8.01473 157.812>
VStem: 0 166<-8.40038 157.175>
LayerCount: 2
Fore
SplineSet
82.3496 168.7 m 0
 138.25 168.7 166 153.667 166 121.6 c 2
 166 -35.7002 l 1
 147.8 -17.5 120.268 -8.40039 83 -8.40039 c 0
 44.8672 -8.40039 18.2002 -17.5 0 -35.7002 c 1
 0 121.6 l 2
 0 153.667 26.4502 168.7 82.3496 168.7 c 0
EndSplineSet
Validated: 1
EndChar

StartChar: PunctumInclinatum
Encoding: 1 -1 1
Width: 185
VWidth: 2612
Flags: W
HStem: -59.373 255.694
VStem: -0.0927734 185.306
LayerCount: 2
Fore
SplineSet
-0.0927734 60.3877 m 1
 79.9277 196.321 l 1
 185.213 75.1113 l 1
 104.332 -59.373 l 1
 -0.0927734 60.3877 l 1
EndSplineSet
Validated: 1
EndChar

StartChar: Stropha.caeciliae
Encoding: 2 -1 2
Width: 151
VWidth: 2686
Flags: W
HStem: -49.1729 234.545
VStem: 0 151
LayerCount: 2
Fore
SplineSet
75.8545 185.372 m 5
 82.3018 165.222 94.9971 143.619 113.334 120.087 c 6
 151 71.75 l 5
 127.842 29.4121 l 6
 103.758 -14.6191 73.8389 -40.3076 40.7939 -49.1729 c 5
 48.0479 -43.5312 51.6748 -35.874 51.6748 -26.2031 c 4
 51.6748 -12.501 43.5947 5.35254 28.7041 28.2021 c 6
 0 72.25 l 5
 75.8545 185.372 l 5
EndSplineSet
Validated: 1
EndChar

StartChar: Quilisma
Encoding: 3 -1 3
Width: 166
VWidth: 2496
Flags: W
HStem: -45 227.7
VStem: 0 59<-41.0625 -13.0609> 166 0<156.459 170.8>
LayerCount: 2
Fore
SplineSet
0 0 m 2
 0 139 l 1
 7 126 20.3994 87.0996 36 87.0996 c 0
 51.5996 87.0996 43.5 161 59.3994 162.1 c 0
 76.958 163.314 76.7324 109.2 95.7998 109.2 c 0
 110.532 109.2 101 181.5 116.6 182.7 c 0
 134.45 184.073 134.985 127.5 143.3 127.5 c 1
 156 127.126 164 156.459 166 170.8 c 1
 166 48.4004 l 2
 166 22 154.985 -1.85191 146.399 -2.7998 c 0
 131 -4.5 128.5 44 116.5 42.5 c 0
 104.097 40.9492 115.007 -21.5 95.5 -21.5 c 0
 72.5 -21.5 71.5 22.5 59 20.5 c 0
 51.1006 19.2363 51.9479 -42.5551 33 -45 c 0
 17.5 -47 0 -16 0 0 c 2
EndSplineSet
Validated: 33
EndChar

StartChar: OriscusReversus
Encoding: 4 -1 4
Width: 166
VWidth: 2537
Flags: W
HStem: -37.1504 176.801<5.21408 91.8295>
VStem: -0.200195 166.4<-3.28925 139.081>
LayerCount: 2
Fore
SplineSet
38.7998 139.65 m 4
 59.8818 139.65 104.721 172.15 127.2 172.15 c 4
 150.6 172.15 166.2 160.06 166.2 121.45 c 6
 166.2 -55.3496 l 5
 166.2 -29.9844 156.915 -3.34961 127.2 -3.34961 c 4
 104.755 -3.34961 59.8643 -37.1504 38.7998 -37.1504 c 4
 7.59961 -37.1504 -0.200195 -12.9697 -0.200195 13.5498 c 6
 -0.200195 190.35 l 5
 -0.200195 164.545 9.58887 139.65 38.7998 139.65 c 4
EndSplineSet
EndChar

StartChar: Oriscus
Encoding: 5 -1 5
Width: 166
VWidth: 2537
Flags: W
HStem: -37.1504 176.8<74.1705 160.786>
VStem: -0.200195 166.4<-3.28925 139.081>
LayerCount: 2
Fore
SplineSet
127.2 139.65 m 4
 156.411 139.65 166.2 164.545 166.2 190.35 c 5
 166.2 13.5498 l 6
 166.2 -12.9697 158.4 -37.1504 127.2 -37.1504 c 4
 106.136 -37.1504 61.2451 -3.34961 38.7998 -3.34961 c 4
 9.08496 -3.34961 -0.200195 -29.9844 -0.200195 -55.3496 c 5
 -0.200195 121.45 l 6
 -0.200195 160.06 15.4004 172.15 38.7998 172.15 c 4
 61.2793 172.15 106.118 139.65 127.2 139.65 c 4
EndSplineSet
Validated: 1
EndChar

StartChar: Flat
Encoding: 6 -1 6
Width: 162
VWidth: 2587
Flags: W
HStem: -47.4492 60.7002<63.9005 160.809>
VStem: -0.174805 24.0498<59.035 321.284> 146.075 15.6<18.0513 121.851>
LayerCount: 2
Fore
SplineSet
45.9746 179.05 m 1
 108.245 179.05 161.675 136.151 161.675 107.551 c 0
 161.675 -5.11621 161.242 -47.4492 160.375 -47.4492 c 0
 96.2422 -47.4492 44.6748 -27.082 5.6748 13.6514 c 1
 1.77539 112.452 -0.174805 127.185 -0.174805 211.848 c 4
 -0.174805 240.067 0.0419922 267.502 0.474609 294.151 c 4
 0.474609 312.351 4.80762 321.451 13.4746 321.451 c 4
 20.4082 321.451 23.875 312.784 23.875 295.451 c 6
 21.2754 73.0508 l 1
 56.8076 33.1836 90.6074 13.251 122.675 13.251 c 0
 138.275 13.251 146.075 21.0508 146.075 36.6514 c 0
 146.075 64.7314 136.428 74.0947 90.1748 101.85 c 2
 45.9746 126.55 l 1
 45.9746 179.05 l 1
EndSplineSet
Validated: 1
EndChar

StartChar: queue
Encoding: 7 -1 7
Width: 18
VWidth: 2048
Flags: W
HStem: -166 161<0.0777626 17.6273>
VStem: 0.0751953 17.7998<-165.201 -5>
LayerCount: 2
Fore
SplineSet
0 -5 m 25
 18 -5 l 25
 17.875 -119.2 l 2
 17.875 -164.44 16.5752 -166 11.375 -166 c 1
 3.5752 -164.267 0.0751953 -157.333 0.0751953 -145.2 c 2
 0 -5 l 25
EndSplineSet
Validated: 1
EndChar

StartChar: PunctumInclinatumDeminutus
Encoding: 8 -1 8
Width: 139
VWidth: 2649
Flags: W
HStem: -18.2529 192.458
VStem: -0.3125 138.878
LayerCount: 2
Fore
SplineSet
60.0762 174.205 m 1
 138.566 80.8232 l 1
 78.4443 -18.2529 l 1
 -0.3125 71.8936 l 1
 60.0762 174.205 l 1
EndSplineSet
Validated: 1
EndChar

StartChar: DivisioMaior
Encoding: 9 -1 9
Width: 19
VWidth: 2048
Flags: W
VStem: 0 19<-408.997 550.999>
LayerCount: 2
Fore
SplineSet
0 550.999 m 29
 19 551 l 25
 19 -408.997 l 25
 0 -409.002 l 25
 0 550.999 l 29
EndSplineSet
Validated: 1
EndChar

StartChar: Virgula
Encoding: 10 -1 10
Width: 143
VWidth: 2418
Flags: W
HStem: 566.55 84.5<2.23911 67.6846>
VStem: 87.1504 55.8996<442.91 546.716>
LayerCount: 2
Fore
SplineSet
-6.4502 595.15 m 4
 -6.4502 639.87 22.1826 651.05 54.6504 651.05 c 4
 81.2305 651.05 143.05 627.467 143.05 527.55 c 4
 143.05 437.417 89.75 380.217 -16.8496 355.95 c 5
 -19.1338 358.234 -22.0498 368.296 -22.0498 371.55 c 4
 -22.0498 373.283 -21.6172 374.583 -20.75 375.45 c 5
 51.1826 407.518 87.1504 445.65 87.1504 489.85 c 4
 87.1504 551.21 49.4326 560.818 16.9502 566.55 c 4
 1.34961 568.283 -6.4502 577.817 -6.4502 595.15 c 4
EndSplineSet
Validated: 1
EndChar

StartChar: CClef
Encoding: 11 -1 11
Width: 166
VWidth: 2575
Flags: W
HStem: -39.5996 192.2<36.9298 152.193> 304.7 189.9<34.8655 150.742>
VStem: -0.200195 166.4<-3.22288 152.6 304.7 460.303> -0.200195 10.4004<201.003 257.437>
LayerCount: 2
Fore
SplineSet
107.7 -39.5996 m 4xe0
 42.9656 -38.7442 -0.200195 -2.36035 -0.200195 65.5 c 6
 -0.200195 391.8 l 6
 -0.200195 460.022 42.6433 495.592 107.7 494.6 c 4
 147 494 166.2 472 166.2 446.4 c 6
 166.2 270 l 5xe0
 155.8 279.1 l 6
 138.854 293.928 110.484 304.7 81.7002 304.7 c 4
 42.8398 304.7 10.2002 272.13 10.2002 229.3 c 4xd0
 10.2002 186.519 42.9111 152.6 81.7002 152.6 c 4
 111.34 152.6 139.125 162.308 155.8 176.9 c 5
 166.2 187.3 l 5
 166.2 9.59961 l 6
 166.2 -23 138 -40 107.7 -39.5996 c 4xe0
EndSplineSet
Validated: 33
EndChar

StartChar: Virga
Encoding: 12 -1 12
Width: 166
VWidth: 2637
Flags: W
HStem: -6.2998 179.4<8.76645 147.7>
VStem: 0 166.4<-6.2998 161.075> 148.2 18.2<-247.149 -21.4563>
LayerCount: 2
Fore
SplineSet
154.7 -248.1 m 1xa0
 149.5 -248.1 148.2 -246.54 148.2 -201.3 c 2
 148.2 -28.4004 l 1xa0
 131.733 -13.667 110.067 -6.2998 83.2002 -6.2998 c 0
 44.2002 -6.2998 17.333 -14.9668 0 -32.2998 c 1
 0 125 l 2
 0 157.067 26.6504 173.1 82.5498 173.1 c 0
 138.45 173.1 166.4 157.067 166.4 125 c 2xc0
 166.4 -227.3 l 2
 166.4 -239.433 162.5 -246.367 154.7 -248.1 c 1xa0
EndSplineSet
Validated: 1
EndChar

StartChar: VirgaReversa
Encoding: 13 -1 13
Width: 166
VWidth: 2637
Flags: W
HStem: -9.2998 179.4<18.4091 157.234>
VStem: 0 166<-9.2998 158.075> 0 17.7998<-250.301 -25.0336>
LayerCount: 2
Fore
SplineSet
11.2998 -251.1 m 5xa0
 3.5 -249.367 0 -242.433 0 -230.3 c 6xa0
 0 122 l 2
 0 154.067 27.5498 170.1 83.4502 170.1 c 0
 139.35 170.1 166 154.067 166 122 c 2
 166 -35.2998 l 1xc0
 148.667 -17.9668 121.8 -9.2998 82.7998 -9.2998 c 0
 55.9326 -9.2998 34.2666 -16.667 17.7998 -31.4004 c 1
 17.7998 -204.3 l 6
 17.7998 -249.54 16.5 -251.1 11.2998 -251.1 c 5xa0
EndSplineSet
Validated: 1
EndChar

StartChar: DivisioMinima
Encoding: 14 -1 14
AltUni2: 000050.ffffffff.0
Width: 19
VWidth: 2048
Flags: W
HStem: 364.431 318.553
VStem: 0 19<365.972 682.984>
LayerCount: 2
Fore
SplineSet
0 371.128 m 13
 0 682.984 l 29
 18.999 683.021 l 29
 19 364.431 l 21
 6.04395 364.565 2.43457 367.609 0 371.128 c 13
EndSplineSet
Validated: 1
EndChar

StartChar: DivisioMinor
Encoding: 15 -1 15
Width: 19
VWidth: 2048
Flags: W
VStem: 0 19<-293.375 385.622>
LayerCount: 2
Fore
SplineSet
0 -296.375 m 9
 0 383.125 l 21
 3.87305 385.802 10.75 386.375 19 386.5 c 9
 19 -293.375 l 17
 14.875 -293.5 5 -293.375 0 -296.375 c 9
EndSplineSet
Validated: 1
EndChar

StartChar: VirgaReversaLongqueue
Encoding: 16 -1 16
Width: 167
VWidth: 2613
Flags: W
HStem: -11.2998 179.4<19.7671 158.234>
VStem: 0 18.7998<-373.955 -26.4557>
LayerCount: 2
Fore
SplineSet
12.2998 -375.3 m 5
 4.5 -372.7 0.0146484 -365.935 0 -354.668 c 2
 0 119.334 l 2
 0 151.401 28.5498 168.1 84.4502 168.1 c 0
 140.35 168.1 167 152.067 167 120 c 2
 167 -37.2998 l 1
 149.667 -19.9668 122.8 -11.2998 83.7998 -11.2998 c 0
 56.9326 -11.2998 35.2666 -18.667 18.7998 -33.3994 c 1
 18.7998 -328.5 l 2
 18.7998 -373.74 17.5 -375.3 12.2998 -375.3 c 5
EndSplineSet
Validated: 1
EndChar

StartChar: pesdeminutus
Encoding: 17 -1 17
Width: 166
VWidth: 2684
Flags: W
HStem: -57.25 189.801<1.02232 128.646>
VStem: 0 166<-26.0436 132.551> 148.004 17.996<161.551 193.993>
LayerCount: 2
Fore
SplineSet
166 0 m 1xc0
 139.165 -55.9062 46.9414 -57.252 35.9141 -57.252 c 2
 34.9004 -57.25 l 2
 11.5 -57.25 0 -47.7324 0 -25.1992 c 2
 0 149 l 1xc0
 6.93359 136.867 21.0332 132.551 42.7002 132.551 c 0
 65.8945 132.551 120.304 137.428 148.004 170.001 c 1
 148.007 193.993 l 1
 166 194.001 l 1xa0
 166 0 l 1xc0
EndSplineSet
Validated: 1
EndChar

StartChar: auctusd1
Encoding: 18 -1 18
Width: 166
VWidth: 2689
Flags: W
HStem: -7.40039 188.502<9.28505 128.518>
VStem: 0 166<-7.40039 148.326> 0 18<180 200>
LayerCount: 2
Fore
SplineSet
0 -26.9004 m 1xa0
 0 200 l 25
 18 200 l 25
 18 180 l 1xa0
 23 181 35.5557 181.102 35.7812 181.102 c 0
 46.873 181.102 140.057 178.208 166 122 c 1
 166 -73 l 1xc0
 152.126 -19.2393 69.7139 -7.40039 42.7012 -7.40039 c 0
 21.0342 -7.40039 6.93359 -13.9004 0 -26.9004 c 1xa0
EndSplineSet
Validated: 1
EndChar

StartChar: auctusa1
Encoding: 19 -1 19
Width: 166
VWidth: 2421
Flags: W
HStem: -52.8008 189.801<18.3153 130.792>
VStem: 0 166<-22.0945 137> 0 18<138.285 140.5>
LayerCount: 2
Fore
SplineSet
166 3.7002 m 5xc0
 139.165 -52.2061 47.1416 -52.8027 36.1143 -52.8027 c 2
 35.1006 -52.8008 l 2
 11.7002 -52.8008 0 -41.5332 0 -19 c 2xc0
 0 156 l 1
 14.5 155.75 4.5 156 18 156 c 1
 18 147.5 17.75 150.25 18 140.5 c 1xa0
 24.6963 138.133 33.3294 137 42.9004 137 c 0
 70.9697 137 152.649 146.594 166 200 c 5
 166 3.7002 l 5xc0
EndSplineSet
Validated: 1
EndChar

StartChar: mdeminutus
Encoding: 20 -1 20
Width: 168
VWidth: 2048
Flags: W
HStem: -1 188<18.0735 133.663>
VStem: 0 18<-39 -3.80309> 150 18<-39.999 -19.9713>
LayerCount: 2
Fore
SplineSet
168 147.341 m 9
 168 -39.999 l 25
 150 -39.999 l 0
 149.5 -29.5 145.623 -21.0762 137.875 -18.25 c 0
 112.741 -9.08105 59.3867 -1 35.25 -1 c 0
 29.25 -1 19.5 -7 17.9971 -16.5 c 0
 18 -39 l 5
 0 -39 l 9
 0.000976562 173.002 l 1
 4.5 177.5 -2.00488 187.206 20 187 c 0
 73.5 186.5 124.375 168.858 154.375 158.375 c 1
 156.938 157.5 167.999 154.004 168 147.341 c 9
EndSplineSet
Validated: 1
EndChar

StartChar: Natural
Encoding: 21 -1 21
Width: 108
Flags: W
VStem: 0 25.2002<7.7002 121.4 173.3 323.299> 84 24<-184.013 -35.5 18.5 128.9>
LayerCount: 2
Fore
SplineSet
0 320.9 m 1
 4 322.5 8.19922 323.3 12.5996 323.3 c 0
 17 323.3 21.2002 322.5 25.2002 320.9 c 1
 25.2002 232.1 l 1
 24 173.3 l 1
 54 178.1 l 2
 70.7998 181.301 85.2002 182.9 97.2002 182.9 c 0
 101.199 182.9 103.6 180.899 104.4 176.9 c 2
 108 -178.3 l 1
 104.8 -182.3 101.199 -184.3 97.2002 -184.3 c 0
 96.3994 -184.3 91.5996 -182.7 82.7998 -179.5 c 1
 83.6006 -178.699 84 -145.9 84 -81.0996 c 2
 84 -35.5 l 1
 12 -47.5 l 1
 6.39941 -46.6992 3.2002 -43.5 2.40039 -37.9004 c 1
 2.40039 92.9004 l 1
 1.2002 214.1 l 1
 0 300.5 l 1
 0 320.9 l 1
86.4004 128.9 m 5
 24 119.3 l 6
 23.1992 119.3 22.7998 82.0996 22.7998 7.7002 c 5
 86.4004 18.5 l 5
 86.4004 128.9 l 5
EndSplineSet
Validated: 1
EndChar

StartChar: FClef
Encoding: 22 -1 22
Width: 322
VWidth: 2503
Flags: W
HStem: -39.5996 192.2<192.93 308.193> 157.5 171.6<6.85166 126.949> 304.7 189.9<190.866 306.742>
VStem: 0 141.7<157.5 319.758> 127.4 14.3<-63.3295 142.692> 155.8 166.4<-3.22288 152.6 304.7 460.303> 155.8 10.4<201.003 257.437>
LayerCount: 2
Fore
SplineSet
263.7 -39.5996 m 4xa4
 198.966 -38.7441 155.8 -2.36035 155.8 65.5 c 6
 155.8 391.8 l 6
 155.8 460.022 198.644 495.592 263.7 494.6 c 4
 303 494 322.2 472 322.2 446.4 c 6
 322.2 270 l 5xa4
 311.8 279.1 l 6
 294.854 293.928 266.484 304.7 237.7 304.7 c 4
 198.84 304.7 166.2 272.13 166.2 229.3 c 4xa2
 166.2 186.519 198.911 152.6 237.7 152.6 c 4
 267.34 152.6 295.125 162.308 311.8 176.9 c 5
 322.2 187.3 l 5
 322.2 9.59961 l 6
 322.2 -23 294 -40 263.7 -39.5996 c 4xa4
133.9 -63.5 m 0
 130 -63.5 127.4 -62.0703 127.4 -53.1006 c 2
 127.4 136.7 l 1xc8
 113.533 150.567 94.4668 157.5 70.2002 157.5 c 0
 40.7334 157.5 17.333 151 0 138 c 1
 0 283.6 l 2
 0 313.933 23.6172 329.1 70.8496 329.1 c 0
 118.083 329.1 141.7 313.933 141.7 283.6 c 2xd0
 141.7 -38.7998 l 2xc8
 141.7 -54.4004 139.1 -62.6328 133.9 -63.5 c 0
EndSplineSet
Validated: 33
EndChar

StartChar: CustosDownLong
Encoding: 23 -1 23
Width: 73
VWidth: 2463
Flags: W
VStem: 0 72.8008<-15.2002 164.055> 57.2002 15.6006<-368.778 -15.2002>
LayerCount: 2
Fore
SplineSet
57.2002 -15.2002 m 1x40
 28.5049 -15.2002 17.624 -18.376 0 -36 c 1
 0 143.399 l 2x80
 0 173.04 34.4521 188.374 72.8008 192.8 c 1
 72.8008 -337.601 l 2
 72.8008 -354.067 69.7676 -364.9 63.7002 -370.101 c 1
 59.3672 -370.101 57.2002 -363.168 57.2002 -349.301 c 2
 57.2002 -15.2002 l 1x40
EndSplineSet
Validated: 1
EndChar

StartChar: CustosDownShort
Encoding: 24 -1 24
Width: 73
VWidth: 2412
Flags: W
VStem: 0 72.8008<-25.2002 154.056> 57.2002 15.6006<-265.452 -25.2002>
LayerCount: 2
Fore
SplineSet
57.2002 -25.2002 m 5x40
 28.5049 -25.2002 17.624 -28.376 0 -46 c 5
 0 133.4 l 6x80
 0 163.04 34.4512 178.38 72.8008 182.8 c 5
 72.8008 -233.2 l 6
 72.8008 -249.667 70.2002 -260.5 65 -265.7 c 5
 64.4531 -265.883 63.9355 -265.974 63.4453 -265.974 c 4
 59.2822 -265.974 57.2002 -259.383 57.2002 -246.2 c 6
 57.2002 -25.2002 l 5x40
EndSplineSet
Validated: 1
EndChar

StartChar: CustosUpLong
Encoding: 25 -1 25
Width: 73
VWidth: 2609
Flags: W
VStem: 0 72.7979<-21.0046 158.6> 57.1992 15.5987<158.6 514.786>
LayerCount: 2
Fore
SplineSet
72.7979 -49.4014 m 1x40
 41.3506 -44.5635 0 -33.1045 0 0 c 2
 0 179.4 l 1x80
 17.7363 163.274 28.2617 158.6 57.1992 158.6 c 1
 57.1992 486.2 l 2
 57.1992 505.267 59.7998 514.8 65 514.8 c 0
 65.3398 514.83 65.6709 514.846 65.9932 514.846 c 0
 71.8838 514.846 74.8291 509.691 74.8291 499.382 c 0
 74.8291 494.439 74.1533 488.312 72.7979 480.999 c 1
 72.7979 -49.4014 l 1x40
EndSplineSet
Validated: 1
EndChar

StartChar: CustosUpShort
Encoding: 26 -1 26
Width: 74
VWidth: 2660
Flags: W
VStem: 0 72.7979<-21.0042 158.6> 57.1982 15.5997<158.6 399.052>
LayerCount: 2
Fore
SplineSet
72.7979 -49.4004 m 5x40
 41.3506 -44.5605 0 -33.1045 0 0 c 6
 0 179.399 l 5x80
 17.7363 163.274 28.2607 158.6 57.1982 158.6 c 5
 57.1982 379.6 l 6
 57.1982 392.65 59.501 399.176 64.1074 399.176 c 4
 64.3955 399.176 64.6924 399.15 64.998 399.1 c 4
 70.1982 398.232 72.7979 387.399 72.7979 366.6 c 6
 72.7979 -49.4004 l 5x40
EndSplineSet
Validated: 1
EndChar

StartChar: PunctumLineBR
Encoding: 27 -1 27
Width: 166
VWidth: 2612
Flags: W
HStem: -9.7334 178.1<9.09686 147.13>
VStem: 0 166<-9.7334 156.342> 148 18<-43.333 -19.1875>
LayerCount: 2
Fore
SplineSet
83.6504 168.367 m 4xc0
 139.55 168.367 166 152.334 166 120.267 c 6xc0
 166 -43.333 l 5
 154 -43.333 160.667 -43.333 148 -43.333 c 5
 148 -29.166 148 -35.833 148 -23.5195 c 5xa0
 131.405 -14.3281 110.098 -9.7334 83 -9.7334 c 4
 45.7324 -9.7334 18.2002 -18.833 0 -37.0332 c 5
 0 120.267 l 6
 0 152.334 27.75 168.367 83.6504 168.367 c 4xc0
EndSplineSet
Validated: 1
EndChar

StartChar: PunctumLineBL
Encoding: 28 -1 28
Width: 166
VWidth: 2612
Flags: W
HStem: -9.7334 178.1<18.8697 156.903>
VStem: -0 166<-9.7334 156.342> -0 18<-43.333 -19.1875>
LayerCount: 2
Fore
SplineSet
82.3496 168.367 m 4xc0
 138.25 168.367 166 152.334 166 120.267 c 6
 166 -37.0332 l 5xc0
 147.8 -18.833 120.268 -9.7334 83 -9.7334 c 4
 55.9023 -9.7334 34.5947 -14.3281 18 -23.5195 c 5
 18 -35.833 18 -29.166 18 -43.333 c 5
 5.33333 -43.3333 12 -43.333 -0 -43.333 c 5xa0
 -0 120.267 l 6
 -0 152.334 26.4502 168.367 82.3496 168.367 c 4xc0
EndSplineSet
Validated: 1
EndChar

StartChar: PunctumLineTL
Encoding: 29 -1 29
Width: 166
VWidth: 2612
Flags: W
HStem: -10.4004 178.1<12.3342 156.903>
VStem: 0 166<-10.4004 155.675> 0 18<158 173>
LayerCount: 2
Fore
SplineSet
82.3496 167.7 m 4xa0
 138.25 167.7 166 151.667 166 119.6 c 6
 166 -37.7002 l 5xc0
 147.8 -19.5 120.268 -10.4004 83 -10.4004 c 4
 44.8672 -10.4004 18.2002 -19.5 0 -37.7002 c 5
 0 173 l 6
 0 173 6 173 18 173 c 5
 18.5 161.5 18 171.705 18 158 c 5
 26 162 52.8395 167.7 82.3496 167.7 c 4xa0
EndSplineSet
Validated: 1
EndChar

StartChar: PunctumLineTR
Encoding: 30 -1 30
Width: 166
VWidth: 2612
Flags: W
HStem: -10.4004 178.1<9.09686 153.666>
VStem: 0 166<-10.4004 155.675> 148 18<158 173>
LayerCount: 2
Fore
SplineSet
83.6504 167.7 m 4xc0
 113.16 167.7 140 162 148 158 c 5
 148 171.705 147.5 161.5 148 173 c 5
 166 173 l 6
 166 -37.7002 l 5xa0
 147.8 -19.5 121.133 -10.4004 83 -10.4004 c 4
 45.7324 -10.4004 18.2002 -19.5 0 -37.7002 c 5
 0 119.6 l 6
 0 151.667 27.75 167.7 83.6504 167.7 c 4xc0
EndSplineSet
Validated: 1
EndChar

StartChar: PunctumLineBLBR
Encoding: 31 -1 31
Width: 166
VWidth: 2612
Flags: W
HStem: -9.7334 178.1<18.8697 147.437>
VStem: -0 18<-43.333 -19.1875> 148 18<-42 -19.608>
LayerCount: 2
Fore
SplineSet
82.3496 168.367 m 4
 138.25 168.367 166 152.334 166 120.267 c 6
 166 -42 l 5
 157 -42 158.5 -42 148 -42 c 5
 148 -29 148 -34 148 -23.6039 c 5
 131.182 -14.3568 109.564 -9.7334 83 -9.7334 c 4
 55.9023 -9.7334 34.5947 -14.3281 18 -23.5195 c 5
 18 -35.833 18 -29.166 18 -43.333 c 5
 5.33333 -43.3333 12 -43.333 -0 -43.333 c 5
 -0 120.267 l 6
 -0 152.334 26.4502 168.367 82.3496 168.367 c 4
EndSplineSet
Validated: 1
EndChar

StartChar: base6
Encoding: 32 -1 32
Width: 166
VWidth: 2612
Flags: W
HStem: -10.4004 178.1<12.4813 153.666>
VStem: 148 18<158 173>
LayerCount: 2
Fore
SplineSet
83.6504 167.7 m 0
 113.16 167.7 140 162 148 158 c 1
 148 171.705 147.5 161.5 148 173 c 1
 166 173 l 2
 166 -37.7002 l 1
 147.8 -19.5 121.133 -10.4004 83 -10.4004 c 0
 45.7324 -10.4004 18.2002 -19.5 0 -37.7002 c 1
 0 175.5 l 2
 0 175.5 4 175 18 175.5 c 1
 18 167 18 169.5 18 153.906 c 1
 31.8512 163.102 53.7142 167.7 83.6504 167.7 c 0
EndSplineSet
Validated: 1
EndChar

StartChar: line2
Encoding: 33 -1 33
Width: 18
VWidth: 2048
Flags: W
HStem: -12 158<0 18>
VStem: 0 18<-12 146>
LayerCount: 2
Fore
SplineSet
0 -12 m 29
 0 146 l 29
 18 146 l 29
 18 -12 l 29
 0 -12 l 29
EndSplineSet
Validated: 1
EndChar

StartChar: line3
Encoding: 34 -1 34
Width: 18
VWidth: 2048
Flags: W
HStem: -12 312<0 18>
VStem: 0 18<-12 300>
LayerCount: 2
Fore
SplineSet
0 -12 m 25
 0 300 l 25
 18 300 l 25
 18 -12 l 25
 0 -12 l 25
EndSplineSet
Validated: 1
EndChar

StartChar: line4
Encoding: 35 -1 35
Width: 18
VWidth: 2048
Flags: W
VStem: 0 18<-12 443>
LayerCount: 2
Fore
SplineSet
0 -12 m 25
 0 443 l 29
 18 443 l 29
 18 -12 l 25
 0 -12 l 25
EndSplineSet
Validated: 1
EndChar

StartChar: line5
Encoding: 36 -1 36
Width: 18
VWidth: 2048
Flags: W
VStem: 0 18<-12 605>
LayerCount: 2
Fore
SplineSet
0 -12 m 25
 0 605 l 29
 18 605 l 29
 18 -12 l 25
 0 -12 l 25
EndSplineSet
Validated: 1
EndChar

StartChar: VirgaLineBR
Encoding: 37 -1 37
Width: 166
VWidth: 2637
Flags: W
HStem: -10.2998 179.4<18.5519 147.137>
VStem: 0 18.2002<-251.149 -26.3269> 148 18<-53 -24.3221>
LayerCount: 2
Fore
SplineSet
11.7002 -252.1 m 5
 3.90039 -250.367 0 -243.433 0 -231.3 c 6
 0 121 l 6
 0 153.067 27.9502 169.1 83.8506 169.1 c 4
 139.75 169.1 166 153.067 166 121 c 6
 166 -53 l 5
 150.333 -53 157.989 -53.0137 148 -53 c 5
 147.989 -40.0137 148 -49.6667 148 -29.5322 c 5
 132 -18.9158 111.064 -11.0234 83.2002 -10.2998 c 4
 56.3421 -9.60235 25.333 -25.334 18.2002 -32.4004 c 5
 18.2002 -205.3 l 6
 18.2002 -250.54 16.9004 -252.1 11.7002 -252.1 c 5
EndSplineSet
Validated: 33
EndChar

StartChar: rvsbase
Encoding: 38 -1 38
Width: 166
VWidth: 2637
Flags: W
HStem: -10.2998 179.4<18.8626 147.448>
VStem: 0 18<-53 -24.3222> 147.8 18.2<-251.149 -26.327>
LayerCount: 2
Fore
SplineSet
154.3 -252.1 m 1
 149.1 -252.1 147.8 -250.54 147.8 -205.3 c 2
 147.8 -32.4004 l 1
 140.667 -25.334 109.658 -9.60254 82.7998 -10.2998 c 0
 54.9365 -11.0234 34 -18.916 18 -29.5322 c 1
 18 -49.667 18.0107 -40.0137 18 -53 c 1
 8.01074 -53.0137 15.667 -53 0 -53 c 1
 0 121 l 2
 0 153.067 26.25 169.1 82.1494 169.1 c 0
 138.05 169.1 166 153.067 166 121 c 2
 166 -231.3 l 2
 166 -243.433 162.1 -250.367 154.3 -252.1 c 1
EndSplineSet
Validated: 33
EndChar

StartChar: vlbase
Encoding: 39 -1 39
Width: 166
VWidth: 2637
Flags: W
HStem: -10.2998 179.4<18.5519 147.137>
VStem: 0 18.2002<-377.849 -26.3269> 148 18<-53 -24.3221>
LayerCount: 2
Fore
SplineSet
11.7002 -378.8 m 1
 3.90039 -377.067 0 -370.133 0 -358 c 2
 0 121 l 2
 0 153.067 27.9502 169.1 83.8506 169.1 c 0
 139.75 169.1 166 153.067 166 121 c 2
 166 -53 l 1
 150.333 -53 157.989 -53.0137 148 -53 c 1
 147.989 -40.0137 148 -49.6667 148 -29.5322 c 1
 132 -18.9158 111.064 -11.0234 83.2002 -10.2998 c 0
 56.3421 -9.60235 25.333 -25.334 18.2002 -32.4004 c 5
 18.2002 -332 l 2
 18.2002 -377.24 16.9004 -378.8 11.7002 -378.8 c 1
EndSplineSet
Validated: 33
EndChar

StartChar: QuilismaLineTR
Encoding: 40 -1 40
Width: 166
VWidth: 2496
Flags: W
HStem: -45 241.5
VStem: 0 59<-41.0625 -13.0609>
LayerCount: 2
Fore
SplineSet
0 0 m 6
 0 139 l 5
 7 126 20.3994 87.0996 36 87.0996 c 4
 51.5996 87.0996 43.5 161 59.3994 162.1 c 4
 76.958 163.314 76.7324 109.2 95.7998 109.2 c 4
 110.532 109.2 101 181.5 116.6 182.7 c 4
 134.45 184.073 135.11 126.063 143.3 127.5 c 4
 149 128.5 148 175 148 196.5 c 5
 158 196.5 156 196 166 196.8 c 5
 166 48.4004 l 6
 166 22 154.985 -1.85191 146.399 -2.7998 c 4
 131 -4.5 128.5 44 116.5 42.5 c 4
 104.097 40.9492 115.007 -21.5 95.5 -21.5 c 4
 72.5 -21.5 71.5 22.5 59 20.5 c 4
 51.1006 19.2363 51.9479 -42.5551 33 -45 c 4
 17.5 -47 0 -16 0 0 c 6
EndSplineSet
Validated: 33
EndChar

StartChar: OriscusLineTR
Encoding: 41 -1 41
Width: 166
VWidth: 2537
Flags: W
HStem: -37.1504 176.8<74.1705 154.735>
VStem: -0.200195 166.4<-3.28925 139.081> 148.027 17.9728<141.255 159>
LayerCount: 2
Fore
SplineSet
148 159 m 5xa0
 166 159 l 5xa0
 166.2 13.5498 l 2
 166.2 -12.9697 158.4 -37.1504 127.2 -37.1504 c 0
 106.136 -37.1504 61.2451 -3.34961 38.7998 -3.34961 c 0
 9.08496 -3.34961 -0.200195 -29.9844 -0.200195 -55.3496 c 1
 -0.200195 121.45 l 6xc0
 -0.200195 160.06 15.4004 172.15 38.7998 172.15 c 4
 61.2793 172.15 106.118 139.65 127.2 139.65 c 4
 135.712 139.65 142.575 141.764 148.027 145.398 c 5
 148 159 l 5xa0
EndSplineSet
EndChar

StartChar: pbase
Encoding: 42 -1 42
Width: 166
VWidth: 2613
Flags: W
HStem: -31.5137 152.124<0.00266266 147.556>
VStem: 0 166<-31.264 120.599> 148 18<124.192 150>
LayerCount: 2
Fore
SplineSet
79.2998 -31.2998 m 0xc0
 56.3535 -31.2998 39.9717 -31.5459 28.3018 -31.5459 c 0
 3.54395 -31.5459 0 -30.4355 0 -23.5 c 2
 0 113 l 2xc0
 0 119.067 2.16699 122.101 6.5 122.101 c 2
 10.4004 122.101 l 2
 14.7334 121.233 35.5332 120.8 75.4004 120.8 c 0
 87.8047 120.8 98.5234 120.61 107.668 120.61 c 0
 137.756 120.61 148 123.366 148 141 c 1
 148 150 l 1
 166 150 l 1xa0
 166 -22.2002 l 2
 166 -30.3105 157.757 -31.5137 128.375 -31.5137 c 0
 115.999 -31.5137 99.9414 -31.2998 79.2998 -31.2998 c 0xc0
EndSplineSet
Validated: 1
EndChar

StartChar: idebilis
Encoding: 43 -1 43
Width: 83
VWidth: 2605
Flags: W
HStem: -4.39941 110.299<9.7355 63.4201>
VStem: 0 83<6.00141 105.9> 65 18<113.282 194>
LayerCount: 2
Fore
SplineSet
53.2998 -4.39941 m 4xc0
 23.5117 -4.39941 0 19.7139 0 45 c 6
 0 124.101 l 1xc0
 10.3994 111.968 24.667 106 42.8994 105.9 c 0
 54.0078 105.84 65 122.333 65 137 c 2
 65 194 l 1
 83 194 l 1xa0
 83 20.3008 l 6
 83 5.48047 71.2393 -4.39941 53.2998 -4.39941 c 4xc0
EndSplineSet
Validated: 33
EndChar

StartChar: deminutus
Encoding: 44 -1 44
Width: 83
VWidth: 2605
Flags: W
HStem: -15.3994 112.3<9.7355 63.4201>
VStem: 0 83<-4.99859 96.9004> 65 18<104.282 185>
LayerCount: 2
Fore
SplineSet
53.2998 -15.3994 m 4xc0
 23.5117 -15.3994 0 8.71387 0 34 c 6
 0 115.101 l 1xc0
 10.3994 102.968 24.667 97 42.8994 96.9004 c 0
 54.0078 96.8398 65 113.333 65 128 c 2
 65 185 l 1
 83 185 l 1xa0
 83 9.30078 l 6
 83 -5.51953 71.2393 -15.3994 53.2998 -15.3994 c 4xc0
EndSplineSet
Validated: 33
EndChar

StartChar: rdeminutus
Encoding: 45 -1 45
Width: 83
VWidth: 2605
Flags: W
HStem: 30.0996 113.299<9.7355 63.4201>
VStem: 0 83<30.0996 132.998> 65 18<-63 22.7177>
LayerCount: 2
Fore
SplineSet
53.2998 143.399 m 0xc0
 71.2393 143.399 83 133.52 83 118.699 c 2xc0
 83 -63 l 1
 65 -63 l 1
 65 -1 l 6xa0
 65 13.667 54.0078 30.1602 42.8994 30.0996 c 4
 24.667 30 10.3994 24.0322 0 11.8994 c 5
 0 94 l 2
 0 119.286 23.5117 143.399 53.2998 143.399 c 0xc0
EndSplineSet
Validated: 33
EndChar

StartChar: PunctumAuctusLineBL
Encoding: 46 -1 46
Width: 166
VWidth: 2689
Flags: W
HStem: -2 188.502<18.318 130.579>
VStem: 0 166.399<-2 155.451> 0 18<-31 -3.48472>
LayerCount: 2
Fore
SplineSet
166.399 -65.7002 m 1xc0
 152.525 -11.9395 69.9131 -2 42.9004 -2 c 0
 33.0892 -2 24.7887 -3.33277 17.9986 -5.99832 c 1
 18 -21 18 -17 18 -31 c 5
 7 -31 10 -31 0 -31 c 1xa0
 0 154 l 2
 0 175.667 11.7002 186.5 35.1006 186.5 c 0
 35.2783 186.5 35.5742 186.502 35.9805 186.502 c 0
 47.0723 186.502 140.456 185.508 166.399 129.3 c 1
 166.399 -65.7002 l 1xc0
EndSplineSet
Validated: 1
EndChar

StartChar: auctusa2
Encoding: 47 -1 47
Width: 166
VWidth: 2421
Flags: W
HStem: -42.8008 189.801<18.2237 131.074>
VStem: 0 166.4<-11.6396 147> 0 18<-61 -40.0765>
LayerCount: 2
Fore
SplineSet
166.4 14.3994 m 1xc0
 139.565 -41.5068 47.1416 -42.8027 36.1143 -42.8027 c 2
 35.1006 -42.8008 l 2
 28.4574 -42.8008 22.7572 -41.8927 18 -40.0765 c 1
 18 -54.5 18 -46 18 -61 c 1
 0 -61 l 2
 0 165.199 l 1xa0
 6.93359 153.066 21.2334 147 42.9004 147 c 0
 70.9697 147 153.049 157.293 166.4 210.699 c 1
 166.4 14.3994 l 1xc0
EndSplineSet
Validated: 1
EndChar

StartChar: porrectus1
Encoding: 48 -1 48
Width: 447
VWidth: 2553
Flags: W
VStem: 429 18<-10.7146 37.2002>
LayerCount: 2
Fore
SplineSet
415.85 -201.2 m 0
 287 -200.5 123.5 -138.801 0 -34 c 1
 0 157.601 l 1
 49.5 112.45 117.5 55.5 228.85 -0.700195 c 0
 265.646 -19.2715 321.5 -42.8004 359.75 -40 c 0
 395.189 -37.4055 420.333 -23.5322 429 9.40039 c 1
 429 37.2002 l 1
 447 37.2002 l 1
 447 -183 l 2
 447 -195.133 436.65 -201.313 415.85 -201.2 c 0
EndSplineSet
Validated: 33
EndChar

StartChar: porrectus2
Encoding: 49 -1 49
Width: 547
VWidth: 2575
Flags: W
HStem: -369 167.2<435.954 519.633>
VStem: 529 18<-179.776 -131.1>
LayerCount: 2
Fore
SplineSet
547 -354.1 m 5
 547.006 -361.908 535.933 -368.562 516 -369 c 1
 461.933 -369 402.48 -336.605 285.4 -262.2 c 0
 152.892 -177.99 65 -99.2676 0 -25.5996 c 1
 0 172 l 1
 139.94 -11.6719 374 -183 481.9 -201.8 c 1
 493.601 -201.8 l 2
 512.75 -201.8 529 -167.5 529 -152.4 c 2
 529 -131.1 l 1
 547 -131.1 l 1
 547 -354.1 l 5
EndSplineSet
Validated: 33
EndChar

StartChar: porrectus3
Encoding: 50 -1 50
Width: 628
VWidth: 2556
Flags: W
HStem: -559 189<554.023 616.5>
VStem: 610 18<-358.86 -326>
LayerCount: 2
Fore
SplineSet
598 -556 m 0
 517 -528 416 -464 298 -362 c 0
 215 -294 116 -188 0 -45 c 1
 0 162 l 5
 133 -2 233 -123 306 -193 c 4
 440 -322 547 -370 567 -370 c 0
 587 -370 610 -360 610 -340 c 1
 610 -326 l 1
 628 -326 l 1
 628 -535 l 2
 628 -551 622 -559 611 -559 c 0
 608 -559 603 -558 598 -556 c 0
EndSplineSet
Validated: 1
EndChar

StartChar: porrectus4
Encoding: 51 -1 51
Width: 704
VWidth: 2500
Flags: W
VStem: 686 18<-504.438 -464.399>
LayerCount: 2
Fore
SplineSet
668 -709.399 m 0
 518 -609 224 -393 0 -54 c 1
 0 178.601 l 1
 68 67 167.609 -64.1445 322.601 -228.5 c 0
 426.333 -338.5 510 -418 625.9 -509.199 c 0
 634.215 -515.742 642.367 -516.3 649.3 -516.3 c 0
 667.5 -516.3 679 -509 686 -485.8 c 1
 686 -464.399 l 1
 704 -464.399 l 1
 704 -684.899 l 2
 704 -700.495 693.133 -713.3 683.601 -713.3 c 0
 679.268 -713.3 673.486 -713.071 668 -709.399 c 0
EndSplineSet
Validated: 1
EndChar

StartChar: porrectus5
Encoding: 52 -1 52
Width: 849
VWidth: 2048
Flags: W
VStem: 831 18<-642.438 -602.399>
LayerCount: 2
Fore
SplineSet
813 -847.399 m 0
 663.206 -776.618 231.179 -394.498 0 -54 c 1
 0 178.601 l 1
 61.5332 64.2002 212.399 -131.5 374.5 -300 c 0
 476.788 -406.326 650.5 -570 770.9 -647.199 c 0
 779.807 -652.91 787.367 -654.3 794.3 -654.3 c 0
 812.5 -654.3 824 -647 831 -623.8 c 1
 831 -602.399 l 1
 849 -602.399 l 1
 849 -822.899 l 2
 849 -838.495 838.133 -851.3 828.601 -851.3 c 0
 824.268 -851.3 819.067 -850 813 -847.399 c 0
EndSplineSet
Validated: 1
EndChar

StartChar: porrectusflexus1
Encoding: 53 -1 53
Width: 503
VWidth: 2553
Flags: W
HStem: -201.2 162.8<278.914 484.003>
VStem: 484.667 18<-35.5071 38.7998>
LayerCount: 2
Fore
SplineSet
471.85 -201.2 m 4
 315.859 -201.2 150.71 -172.379 0 -40 c 5
 0 157.601 l 5
 47.667 110.8 126.963 58.4531 237.85 0.299805 c 4
 289.005 -26.5283 356.667 -39.2002 415.417 -38.4004 c 4
 450.947 -37.917 467.667 -36.3333 484.667 -34.6553 c 5
 484.667 38.7998 l 5
 502.667 38.7998 l 5
 503 -183 l 6
 503.019 -195.133 492.65 -201.2 471.85 -201.2 c 4
EndSplineSet
Validated: 33
EndChar

StartChar: porrectusflexus2
Encoding: 54 -1 54
Width: 629
VWidth: 2575
Flags: W
VStem: 610.001 17.999<-204.413 -131.1>
LayerCount: 2
Fore
SplineSet
610.001 -195.499 m 5
 610 -131.1 l 5
 628 -131.1 l 5
 628 -354.1 l 5
 628.006 -361.908 616.933 -373.562 597 -374 c 5
 512.933 -374 412.48 -336.605 295.4 -262.2 c 4
 162.892 -177.99 65 -99.2676 0 -25.5996 c 5
 0 172 l 5
 139.94 -11.6719 354.969 -174.639 540.9 -201.8 c 5
 540.9 -201.8 611.667 -215 610.001 -195.499 c 5
EndSplineSet
Validated: 33
EndChar

StartChar: porrectusflexus3
Encoding: 55 -1 55
Width: 628
VWidth: 2556
Flags: W
VStem: 610 18<-377.668 -326.4>
LayerCount: 2
Fore
SplineSet
598 -541.9 m 4
 516.533 -514.167 416.433 -458.601 297.7 -357.2 c 4
 215.367 -288.733 116.133 -183 0 -40 c 5
 0 157.6 l 5
 132.601 -6.2002 233.259 -126.734 305.601 -196.601 c 4
 440 -326.4 542.25 -371.5 561.7 -374.9 c 5
 607.5 -384 610 -375.333 610 -363.316 c 5
 610 -326.4 l 5
 628 -326.4 l 5
 628 -521.101 l 6
 628 -536.698 622.268 -544.5 611 -544.5 c 4
 607.533 -544.5 603.2 -543.633 598 -541.9 c 4
EndSplineSet
Validated: 33
EndChar

StartChar: porrectusflexus4
Encoding: 56 -1 56
Width: 628
VWidth: 2500
Flags: W
VStem: 609.75 18.25<-557 -477.399>
LayerCount: 2
Fore
SplineSet
609.75 -557 m 1
 610 -477.399 l 1
 628 -477.399 l 1
 628 -679.899 l 2
 628 -695.495 623.133 -703.3 613.601 -703.3 c 0
 609.268 -703.3 604.067 -720 598 -717.399 c 0
 448.206 -646.618 231.179 -394.498 0 -54 c 1
 0 161.601 l 1
 61.5332 47.2002 162.165 -98.7559 301.601 -276.5 c 0
 392.664 -392.583 450 -462 538.9 -533.199 c 0
 561.555 -551.343 587.25 -555 609.75 -557 c 1
EndSplineSet
Validated: 1
EndChar

StartChar: porrectusflexus5
Encoding: 57 -1 57
Width: 931
VWidth: 2048
Flags: W
VStem: 913 18<-711 -612>
LayerCount: 2
Fore
SplineSet
0 -34 m 1
 0 183 l 2
 0 187.739 5.35547 186.627 7 182.75 c 0
 122.5 -89.5 386.5 -591 913 -711 c 1
 913 -668 913 -654.875 913 -612 c 1
 923.125 -612 926.281 -611.9 931 -612 c 1
 931 -841 l 2
 931 -843.229 930.646 -842.992 928.76 -842.591 c 1
 351 -717 54 -249 0 -34 c 1
EndSplineSet
Validated: 1
EndChar

StartChar: PesQuilismaOneNothing
Encoding: 58 -1 58
Width: 166
VWidth: 2496
Flags: W
HStem: 184.8 157.7<20.8252 147.185>
VStem: 0 59<-44.0625 -16.0609> 11 155<184.8 330.15> 148 18<107.547 177.98>
LayerCount: 2
Fore
SplineSet
0 -3 m 6xd0
 0 119 l 1
 7 106 20.3994 67.0996 36 67.0996 c 0
 51.5996 67.0996 43.5 141 59.3994 142.1 c 0
 76.958 143.314 76.7324 89.2002 95.7998 89.2002 c 0
 110.532 89.2002 101 161.5 116.6 162.7 c 0
 134.45 164.073 135.11 106.063 143.3 107.5 c 0
 147.555 108.246 148.101 125.256 148 156.199 c 0xd0
 148 184 130.521 184.8 89.3994 184.8 c 0
 59.0674 184.8 30.9326 177.867 11 164 c 1
 11 293.1 l 2
 11 326.032 39.1328 342.5 89.3994 342.5 c 0
 122.55 342.5 166 332.619 166 293.1 c 2xa0
 166 45.4004 l 6
 166 19 154.985 -4.85156 146.399 -5.7998 c 4
 131 -7.5 128.5 41 116.5 39.5 c 4
 104.097 37.9492 115.007 -24.5 95.5 -24.5 c 4
 72.5 -24.5 71.5 19.5 59 17.5 c 4
 51.1006 16.2363 51.9482 -45.5547 33 -48 c 4
 17.5 -50 0 -19 0 -3 c 6xd0
EndSplineSet
Validated: 33
EndChar

StartChar: StrophaAucta.caeciliae
Encoding: 59 -1 59
Width: 151
VWidth: 2686
Flags: W
HStem: -50.5 235.872
VStem: 0 151
LayerCount: 2
Fore
SplineSet
75.8545 185.372 m 1
 82.3018 165.222 94.9971 143.619 113.334 120.087 c 2
 151 71.75 l 1
 127.842 29.4121 l 2
 103.758 -14.6191 52.5449 -41.6348 19.5 -50.5 c 1
 26.7539 -44.8584 45.5 -29 53 -20 c 0
 61.7427 -9.50878 70.8906 5.15039 56 28 c 2
 0 72.25 l 1
 75.8545 185.372 l 1
EndSplineSet
Validated: 33
EndChar

StartChar: PunctumInclinatumAuctus.caeciliae
Encoding: 60 -1 60
Width: 185
VWidth: 2048
Flags: W
HStem: -67.1348 266.969
VStem: -0.0927734 185.306
LayerCount: 2
Fore
SplineSet
67.6621 -61.9316 m 1
 67.6621 -61.9316 92.1875 -45.4102 83.4697 -31.9346 c 1
 57.6875 4.36523 -0.0927734 63.9004 -0.0927734 63.9004 c 1
 79.9277 199.834 l 1
 185.213 78.624 l 1
 185.213 78.624 143.344 2.44141 108.688 -48.4346 c 1
 96.0879 -64.3848 76.5879 -67.1348 76.5879 -67.1348 c 1
 74.2725 -67.2686 69.2207 -66.8652 67.2959 -66.8652 c 0
 64.7744 -66.8652 62.9893 -66.6143 62.9893 -65.7539 c 0
 62.9893 -65.0098 64.3223 -63.8135 67.6621 -61.9316 c 1
EndSplineSet
Validated: 33
EndChar

StartChar: VirgaLongqueue
Encoding: 61 -1 61
Width: 166
VWidth: 2613
Flags: W
HStem: -9.2998 179.4<8.76645 147.7>
VStem: 0 166.4<-9.2998 158.075> 148.2 18.2<-372.121 -24.4557>
LayerCount: 2
Fore
SplineSet
154.7 -373.3 m 1xa0
 149.5 -373.3 148.2 -371.74 148.2 -326.5 c 2
 148.2 -31.3994 l 1xa0
 131.733 -16.667 110.067 -9.2998 83.2002 -9.2998 c 0
 44.2002 -9.2998 17.333 -17.9668 0 -35.2998 c 1
 0 122 l 2
 0 154.067 26.6504 170.1 82.5498 170.1 c 0
 138.45 170.1 166.4 154.067 166.4 122 c 2xc0
 166.4 -352.5 l 2
 166.4 -363.767 162.5 -370.7 154.7 -373.3 c 1xa0
EndSplineSet
Validated: 1
EndChar

StartChar: AuctumMora
Encoding: 62 -1 62
Width: 71
VWidth: 2679
Flags: W
HStem: 47.75 71.5<2.80207 68.1979>
VStem: -0.25 71.5<50.7717 116.228>
LayerCount: 2
Fore
SplineSet
35.5 47.75 m 4
 17.4814 47.75 -0.25 62.8789 -0.25 83.5 c 4
 -0.25 104.155 17.4727 119.25 35.5 119.25 c 4
 53.5186 119.25 71.25 104.121 71.25 83.5 c 4
 71.25 62.8447 53.5273 47.75 35.5 47.75 c 4
EndSplineSet
Validated: 1
EndChar

StartChar: VEpisema
Encoding: 64 -1 63
Width: 34
VWidth: 2048
Flags: W
HStem: -18.0996 109.199
VStem: 0 34<-17.9249 91.0972>
LayerCount: 2
Fore
SplineSet
0 84.9375 m 21
 2.125 88.2314 5.62695 91.0996 17 91.0996 c 4
 27.7314 91.0996 31.875 87.8066 34 84.9375 c 13
 34 -11.8311 l 17
 31.3438 -15.7627 27.0928 -17.9932 17 -18.0996 c 0
 7.0127 -18.2061 3.29395 -16.0811 0 -11.8311 c 9
 0 84.9375 l 21
EndSplineSet
Validated: 1
EndChar

StartChar: PunctumDeminutus
Encoding: 65 -1 64
Width: 83
VWidth: 2612
Flags: W
HStem: 25.9307 89.6203<-0.0494156 83.0469>
VStem: -0.30957 83.6192<25.9307 113.636>
LayerCount: 2
Fore
SplineSet
41.1289 115.551 m 0
 69.2578 115.551 83.3096 108.196 83.3096 92.0605 c 2
 83.3096 12.9062 l 1
 74.1514 22.0654 60.209 25.9307 41.4561 25.9307 c 0
 22.2676 25.9307 8.84863 21.3516 -0.30957 12.1934 c 1
 -0.30957 91.3467 l 2
 -0.30957 107.483 13 115.551 41.1289 115.551 c 0
EndSplineSet
Validated: 1
EndChar

StartChar: hepisema_base
Encoding: 66 -1 65
Width: 1
VWidth: 2048
Flags: W
HStem: 64 32<0 1>
VStem: 0 1<64 96>
LayerCount: 2
Fore
SplineSet
0 64 m 29
 0 96 l 25
 1 96 l 25
 1 64 l 25
 0 64 l 29
EndSplineSet
Validated: 1
EndChar

StartChar: CustosUpMedium
Encoding: 67 -1 66
Width: 74
VWidth: 2660
Flags: W
VStem: 0 72.7979<-21.0042 158.6> 57.1982 15.5997<158.6 431.052>
LayerCount: 2
Fore
SplineSet
72.7979 -49.4004 m 1x40
 41.3506 -44.5605 0 -33.1045 0 0 c 2
 0 179.399 l 1x80
 17.7363 163.274 28.2607 158.6 57.1982 158.6 c 1
 57.1982 411.6 l 6
 57.1982 424.65 59.501 431.176 64.1074 431.176 c 4
 64.3955 431.176 64.6924 431.15 64.998 431.1 c 4
 70.1982 430.232 72.7979 419.399 72.7979 398.6 c 6
 72.7979 -49.4004 l 1x40
EndSplineSet
Validated: 1
EndChar

StartChar: CustosDownMedium
Encoding: 68 -1 67
Width: 73
VWidth: 2412
Flags: W
VStem: 0 72.8008<-25.2002 154.056> 57.2002 15.6006<-285.451 -25.2002>
LayerCount: 2
Fore
SplineSet
57.2002 -25.2002 m 1x40
 28.5049 -25.2002 17.624 -28.376 0 -46 c 1
 0 133.4 l 2x80
 0 163.04 34.4512 178.38 72.8008 182.8 c 1
 72.8008 -253.2 l 6
 72.8008 -269.667 70.2002 -280.5 65 -285.7 c 5
 64.4531 -285.883 63.9355 -285.974 63.4453 -285.974 c 4
 59.2822 -285.974 57.2002 -279.383 57.2002 -266.2 c 6
 57.2002 -25.2002 l 1x40
EndSplineSet
Validated: 1
EndChar

StartChar: Accentus
Encoding: 69 -1 68
Width: 6
Flags: W
HStem: -56.1992 151.199
VStem: 1.19922 132
LayerCount: 2
Fore
SplineSet
94.7998 95 m 4
 102.8 95 111.199 92.6006 120 87.8008 c 4
 128.8 83 133.199 75.8008 133.199 66.2002 c 4
 133.199 56.6006 130 49.4004 123.6 44.6006 c 6
 6 -55 l 5
 3.59961 -55.7998 2 -56.1992 1.19922 -56.1992 c 260
 0.399414 -56.1992 0 -54.5996 0 -51.3994 c 5
 73.1992 79.4004 l 6
 78.7998 89.8008 86 95 94.7998 95 c 4
EndSplineSet
Validated: 1
EndChar

StartChar: AccentusReversus
Encoding: 70 -1 69
Width: 6
Flags: W
HStem: -56.1992 151.199
VStem: -127 133.199
LayerCount: 2
Fore
SplineSet
-88.6006 95 m 0
 -79.8008 95 -72.6006 89.8008 -67 79.4004 c 2
 6.19922 -51.3994 l 1
 6.19922 -54.5996 5.7998 -56.1992 5 -56.1992 c 256
 4.19922 -56.1992 2.59961 -55.7998 0.199219 -55 c 1
 -117.4 44.6006 l 2
 -123.801 49.4004 -127 56.6006 -127 66.2002 c 0
 -127 75.8008 -122.601 83 -113.801 87.8008 c 0
 -105 92.6006 -96.6006 95 -88.6006 95 c 0
EndSplineSet
Validated: 1
EndChar

StartChar: SemicirculusReversus
Encoding: 71 -1 70
Width: 125
VWidth: 1583
Flags: W
HStem: -664.386 23.94 -161.646 23.94 341.094 23.94 843.834 23.94
LayerCount: 2
Fore
SplineSet
95.7607 -11.6357 m 1
 95.7607 7.51758 81.3955 21.8809 62.2441 21.8809 c 0
 43.0928 21.8809 28.7275 7.51758 28.7275 -11.6357 c 1
 0 -11.6357 l 1
 0 23.4766 27.1318 50.6104 62.2441 50.6104 c 0
 97.3564 50.6104 124.488 23.4766 124.488 -11.6357 c 1
 95.7607 -11.6357 l 1
EndSplineSet
Validated: 1
EndChar

StartChar: Semicirculus
Encoding: 72 -1 71
Width: 124
VWidth: 1606
Flags: W
HStem: -641.142 23.94 -138.402 23.94 364.338 23.94 867.078 23.94
LayerCount: 2
Fore
SplineSet
95.5166 11.623 m 1
 124.244 11.623 l 1
 124.244 -23.4893 97.1123 -50.623 62 -50.623 c 0
 26.8877 -50.623 -0.244141 -23.4893 -0.244141 11.623 c 1
 28.4834 11.623 l 1
 28.4834 -7.53027 42.8486 -21.8936 62 -21.8936 c 0
 81.1514 -21.8936 95.5166 -7.53027 95.5166 11.623 c 1
EndSplineSet
Validated: 1
EndChar

StartChar: Circulus
Encoding: 73 -1 72
Width: 124
VWidth: 1594
Flags: W
HStem: -652.764 23.94 -150.024 23.94 352.716 23.94 855.456 23.94
LayerCount: 2
Fore
SplineSet
62 -33.5166 m 0
 79.5557 -33.5166 95.5166 -19.1514 95.5166 0 c 0
 95.5166 17.5557 81.1514 33.5166 62 33.5166 c 0
 44.4443 33.5166 28.4834 19.1514 28.4834 0 c 0
 28.4834 -17.5557 42.8486 -33.5166 62 -33.5166 c 0
62 62.2441 m 0
 95.5166 62.2441 124.244 36.708 124.244 0 c 0
 124.244 -33.5166 98.708 -62.2441 62 -62.2441 c 0
 28.4834 -62.2441 -0.244141 -36.708 -0.244141 0 c 0
 -0.244141 33.5166 25.292 62.2441 62 62.2441 c 0
EndSplineSet
Validated: 1
EndChar

StartChar: CClefChange
Encoding: 74 -1 73
Width: 166
VWidth: 2575
Flags: W
HStem: -39.5996 192.2<36.9298 152.193> 304.7 189.9<34.8655 150.742>
VStem: -0.200195 166.4<-3.22288 152.6 304.7 460.303> -0.200195 10.4004<201.003 257.437>
LayerCount: 2
Fore
SplineSet
107.7 -39.5996 m 4xe0
 42.9656 -38.7442 -0.200195 -2.36035 -0.200195 65.5 c 6
 -0.200195 391.8 l 6
 -0.200195 460.022 42.6433 495.592 107.7 494.6 c 4
 147 494 166.2 472 166.2 446.4 c 6
 166.2 270 l 5xe0
 155.8 279.1 l 6
 138.854 293.928 110.484 304.7 81.7002 304.7 c 4
 42.8398 304.7 10.2002 272.13 10.2002 229.3 c 4xd0
 10.2002 186.519 42.9111 152.6 81.7002 152.6 c 4
 111.34 152.6 139.125 162.308 155.8 176.9 c 5
 166.2 187.3 l 5
 166.2 9.59961 l 6
 166.2 -23 138 -40 107.7 -39.5996 c 4xe0
EndSplineSet
Validated: 33
EndChar

StartChar: FClefChange
Encoding: 75 -1 74
Width: 322
VWidth: 2503
Flags: W
HStem: -39.5996 192.2<192.93 308.193> 160.95 171.6<6.65048 126.748> 304.7 189.9<190.866 306.742>
VStem: -0.201172 141.7<160.95 323.208> 127.199 14.3<-59.8793 146.143> 155.8 166.4<-3.22288 152.6 304.7 460.303> 155.8 10.4<201.003 257.437>
LayerCount: 2
Fore
SplineSet
263.7 -39.5996 m 4xa4
 198.966 -38.7441 155.8 -2.36035 155.8 65.5 c 6
 155.8 391.8 l 6
 155.8 460.022 198.644 495.592 263.7 494.6 c 4
 303 494 322.2 472 322.2 446.4 c 6
 322.2 270 l 5xa4
 311.8 279.1 l 6
 294.854 293.928 266.484 304.7 237.7 304.7 c 4
 198.84 304.7 166.2 272.13 166.2 229.3 c 4xa2
 166.2 186.519 198.911 152.6 237.7 152.6 c 4
 267.34 152.6 295.125 162.308 311.8 176.9 c 5
 322.2 187.3 l 5
 322.2 9.59961 l 6
 322.2 -23 294 -40 263.7 -39.5996 c 4xa4
133.699 -60.0498 m 0
 129.799 -60.0498 127.199 -58.6201 127.199 -49.6504 c 2
 127.199 140.15 l 1xc8
 113.332 154.018 94.2656 160.95 69.999 160.95 c 0
 40.5322 160.95 17.1318 154.45 -0.201172 141.45 c 1
 -0.201172 287.05 l 2
 -0.201172 317.383 23.416 332.55 70.6484 332.55 c 0
 117.882 332.55 141.499 317.383 141.499 287.05 c 2xd0
 141.499 -35.3496 l 2xc8
 141.499 -50.9502 138.898 -59.1826 133.699 -60.0498 c 0
EndSplineSet
Validated: 33
EndChar

StartChar: VEpisema.circumflexus
Encoding: 76 -1 75
Width: 108
VWidth: 2048
Flags: W
HStem: -409 15 -94 15 221 15 536 15
LayerCount: 2
Fore
SplineSet
0 -14 m 9
 37 76 l 17
 40.6667 82.3333 45.2422 87.001 54.0029 87 c 0
 63 86.999 68 82 71 76 c 13
 108 -16 l 17
 108 -21.1426 103.333 -22.333 99.002 -23.5 c 0
 90.8721 -25.6895 82.8571 -23.1429 80 -18 c 9
 54 40.999 l 25
 54 40.999 30.6667 -12 28 -18 c 1
 23.166 -24.5 16.5 -25.5 9 -23.5 c 0
 4.59668 -22.3252 0 -18.6667 0 -14 c 9
EndSplineSet
Validated: 33
EndChar

StartChar: PunctumCavum
Encoding: 77 -1 76
Width: 166
VWidth: 2612
Flags: W
HStem: -8.40039 22.0127<24.0685 141.703> 142.987 26.713<26.8879 139.753>
VStem: -0.200195 18.9004<5.90332 130.196> 148.3 17.9<5.05273 129.917>
LayerCount: 2
Fore
SplineSet
82.6133 142.987 m 0
 49.3525 142.987 18.5986 134.042 18.6152 114.963 c 2
 18.7002 5.90332 l 1
 24.2246 12.2783 67.7002 13.5527 83 13.6123 c 0
 99.5791 13.6758 134.7 12.7031 148.3 5.05273 c 1
 148.385 114.963 l 2
 148.401 134.042 115.874 142.987 82.6133 142.987 c 0
82.3496 169.7 m 0
 138.25 169.7 166.2 153.667 166.2 121.6 c 2
 166.2 -35.7002 l 1
 148 -17.5 120.268 -8.40039 83 -8.40039 c 0
 44.8672 -8.40039 18 -17.5 -0.200195 -35.7002 c 1
 -0.200195 121.6 l 2
 -0.200195 153.667 26.4502 169.7 82.3496 169.7 c 0
EndSplineSet
Validated: 33
EndChar

StartChar: LineaPunctum
Encoding: 78 -1 77
Width: 266
VWidth: 2048
Flags: W
HStem: -10 178.101<58.9061 206.903>
VStem: 0 18.334<-44.2566 157.635> 50 166<-10 156.076> 247.586 18.334<-44.2525 157.725>
LayerCount: 2
Fore
SplineSet
265.92 -34.2568 m 2
 265.92 -39.957 262.285 -44.2568 256.586 -44.2568 c 0
 250.886 -44.2568 247.586 -38.3027 247.586 -32.6025 c 2
 247.732 147.084 l 2
 247.732 152.784 251.553 157.744 257.253 157.744 c 0
 262.952 157.744 265.827 151.13 265.827 145.43 c 2
 265.92 -34.2568 l 2
18.334 -34.334 m 2
 18.334 -40.0342 13.6992 -44.334 8 -44.334 c 0
 2.2998 -44.334 0 -38.3799 0 -32.6797 c 2
 0.146484 147.007 l 2
 0.146484 152.707 2.9668 157.667 8.66699 157.667 c 0
 14.3662 157.667 18.2412 151.053 18.2412 145.353 c 2
 18.334 -34.334 l 2
132.35 168.101 m 0
 188.25 168.101 216 152.067 216 120 c 2
 216 -37.2998 l 1
 197.8 -19.0996 170.268 -10 133 -10 c 0
 94.8672 -10 68.2002 -19.0996 50 -37.2998 c 1
 50 120 l 2
 50 152.067 76.4502 168.101 132.35 168.101 c 0
EndSplineSet
Validated: 1
EndChar

StartChar: LineaPunctumCavum
Encoding: 79 -1 78
Width: 266
VWidth: 2048
Flags: W
HStem: -12.8008 25.4131<75.0685 195.65> 141.987 23.313<84.1626 186.255>
VStem: 0 18.334<-44.2566 157.635> 50.7998 23.9004<4.90332 132.278> 196.3 20.9<4.05273 130.661> 247.586 18.334<-44.2525 157.725>
LayerCount: 2
Fore
SplineSet
18.334 -34.334 m 2
 18.334 -40.0342 13.6992 -44.334 8 -44.334 c 0
 2.2998 -44.334 0 -38.3799 0 -32.6797 c 2
 0.146484 147.007 l 2
 0.146484 152.707 2.9668 157.667 8.66699 157.667 c 0
 14.3662 157.667 18.2412 151.053 18.2412 145.353 c 2
 18.334 -34.334 l 2
134.613 141.987 m 4
 101.353 141.987 74.6006 133.042 74.6152 113.963 c 6
 74.7002 4.90332 l 5
 80.2246 11.2783 119.7 12.5527 135 12.6123 c 4
 151.579 12.6758 182.7 11.7031 196.3 4.05273 c 5
 196.385 113.963 l 6
 196.399 133.042 167.874 141.987 134.613 141.987 c 4
133.35 165.3 m 0
 189.25 165.3 217.2 149.267 217.2 117.199 c 2
 217.2 -40.1006 l 1
 199 -21.9004 171.268 -12.8008 134 -12.8008 c 0
 95.8672 -12.8008 69 -21.9004 50.7998 -40.1006 c 1
 50.7998 117.199 l 2
 50.7998 149.267 77.4502 165.3 133.35 165.3 c 0
265.92 -34.2568 m 2
 265.92 -39.957 262.285 -44.2568 256.586 -44.2568 c 0
 250.886 -44.2568 247.586 -38.3027 247.586 -32.6025 c 2
 247.732 147.084 l 2
 247.732 152.784 251.553 157.744 257.253 157.744 c 0
 262.952 157.744 265.827 151.13 265.827 145.43 c 2
 265.92 -34.2568 l 2
EndSplineSet
Validated: 33
EndChar

StartChar: PunctumSmall
Encoding: 80 -1 79
Width: 155
VWidth: 2537
Flags: W
HStem: 5.7998 157.7<9.82522 126.738>
VStem: 0 155<5.7998 151.15> 137 18<-48.8008 -18.2177>
LayerCount: 2
Fore
SplineSet
137 -48.8008 m 5xa0
 137 -21 119.521 5.7998 78.3994 5.7998 c 4
 48.0674 5.7998 19.9326 -1.13281 0 -15 c 5
 0 114.1 l 6
 0 147.032 28.1328 163.5 78.3994 163.5 c 4
 111.55 163.5 155 153.619 155 114.1 c 6xc0
 155 -48.8008 l 5
 137 -48.8008 l 5xa0
EndSplineSet
Validated: 1
EndChar

StartChar: hepisemaright
Encoding: 82 -1 80
Width: 2
VWidth: 2048
Flags: W
HStem: 64 32<-1 0>
VStem: -1 3<64 96> -1 1<64 96>
LayerCount: 2
Fore
SplineSet
0 64 m 25xa0
 -1 64 l 29
 -1 96 l 25
 2 96 l 25xc0
 0 64 l 25xa0
EndSplineSet
Validated: 1
EndChar

StartChar: mpdeminutus
Encoding: 83 -1 81
Width: 168
VWidth: 2048
Flags: W
HStem: -46.9961 180<18.0735 116.779>
VStem: 0 17.9971<135.807 182.004> 150 18<162.975 183.003>
LayerCount: 2
Fore
SplineSet
168 -0.336914 m 17
 167.999 -7 156.938 -10.4961 154.375 -11.3711 c 1
 124.375 -21.8535 73.5 -46.4961 20 -46.9961 c 0
 -2.00488 -47.2021 4.5 -37.4961 0.000976562 -32.998 c 1
 0 182.004 l 21
 18 182.004 l 5
 17.9971 148.504 l 4
 19.5 139.004 29.25 133.004 35.25 133.004 c 4
 59.3867 133.004 112.741 152.085 137.875 161.254 c 4
 145.623 164.08 149.5 172.504 150 183.003 c 4
 150 183.003 160.98 183.003 168 183.003 c 29
 168 -0.336914 l 17
EndSplineSet
Validated: 1
EndChar

StartChar: PunctumAscendens
Encoding: 84 -1 82
Width: 166
VWidth: 1149
Flags: W
HStem: -40 189.801<1.44824 130.792>
VStem: 0 166<-8.83884 149.801>
LayerCount: 2
Fore
SplineSet
166 17.2002 m 5
 139.166 -38.7061 47.1416 -40.002 36.1143 -40.002 c 6
 35.1006 -40 l 6
 11.7002 -40 0 -28.7324 0 -6.19922 c 6
 0 168 l 5
 6.93359 155.867 21.2334 149.801 42.9004 149.801 c 4
 70.9697 149.801 152.649 160.094 166 213.5 c 5
 166 17.2002 l 5
EndSplineSet
Validated: 1
EndChar

StartChar: PunctumDescendens
Encoding: 85 -1 83
Width: 166
VWidth: 1342
Flags: W
HStem: -7.5 181.5<0.219196 130.562>
VStem: 0 166<-7.5 151.125>
LayerCount: 2
Fore
SplineSet
48 174 m 4
 73.3184 174 140 177 166 126.5 c 5
 166 -66.5 l 5
 145 -18 75.9131 -7.5 48.9004 -7.5 c 4
 27.2334 -7.5 6.93359 -12 0 -25 c 5
 0 150.5 l 6
 0 168 36 174 48 174 c 4
EndSplineSet
Validated: 33
EndChar

StartChar: mnbdeminutus
Encoding: 86 -1 84
Width: 168
VWidth: 2048
Flags: W
HStem: -3.5 180.5<0.0794468 142.182>
VStem: 0.000976562 167.999<-3.5 156.847> 150 18<-43.999 -24.3816>
LayerCount: 2
Fore
SplineSet
0 -19.002 m 1xa0
 0.000976562 163.002 l 1
 0.000976562 163.002 -2.00488 177.206 20 177 c 0
 73.5 176.5 124.375 164.858 154.375 154.375 c 1
 156.938 153.5 167.999 150.004 168 143.341 c 9xc0
 168 -43.999 l 25
 150 -43.999 l 0
 149.5 -33.5 146.312 -27.0566 137.875 -22.25 c 0
 131 -18.333 123.5 -15.5 99.25 -10.75 c 0
 92.3412 -9.39673 32.25 -3.25 19 -3.5 c 0
 12.7287 -3.61833 1.54545 -13.9091 0 -19.002 c 1xa0
EndSplineSet
Validated: 33
EndChar

StartChar: mnbpdeminutus
Encoding: 87 -1 85
Width: 168
VWidth: 2048
Flags: W
HStem: -34.9971 175.002<0.00537624 131.882>
VStem: 150 18<166.385 186.002>
LayerCount: 2
Fore
SplineSet
0 140.005 m 5
 25 139.67 82.75 147.503 97 151.003 c 4
 121.641 157.056 131 160.336 137.875 164.253 c 4
 146.312 169.06 149.5 175.503 150 186.002 c 4
 150 186.002 160.98 186.002 168 186.002 c 29
 168 4.66211 l 17
 167.999 -2.00098 156.938 -5.49707 154.375 -6.37207 c 1
 124.375 -16.8545 73.5 -34.4971 20 -34.9971 c 0
 -2.00488 -35.2031 0.000976562 -20.999 0.000976562 -20.999 c 1
 0 140.005 l 5
EndSplineSet
Validated: 33
EndChar

StartChar: porrectusflexusnb1
Encoding: 88 -1 86
Width: 503
VWidth: 2553
Flags: W
HStem: -195.2 162.8<278.784 502.992>
LayerCount: 2
Fore
SplineSet
503 -26 m 1
 503 -177 l 6
 503 -189.133 492.65 -195.2 471.85 -195.2 c 4
 315.859 -195.2 150.71 -172.379 0 -40 c 1
 0 157.601 l 1
 47.667 110.8 126.963 62.4531 237.85 4.2998 c 0
 289.005 -22.5283 356.667 -33.2002 415.417 -32.4004 c 0
 450.947 -31.917 488.682 -31.3135 503 -26 c 1
EndSplineSet
Validated: 33
EndChar

StartChar: porrectusflexusnb2
Encoding: 89 -1 87
Width: 628
VWidth: 2575
Flags: W
HStem: -361 172.2<478.983 627.283>
LayerCount: 2
Fore
SplineSet
627.986 -173.686 m 5
 628 -341.1 l 5
 628.006 -348.908 616.933 -360.562 597 -361 c 5
 512.933 -361 412.48 -323.605 295.4 -249.2 c 4
 162.892 -164.99 65 -99.2676 0 -25.5996 c 1
 0 172 l 1
 139.94 -11.6719 354.969 -161.639 540.9 -188.8 c 5
 554.667 -190.333 613.672 -187.735 627.986 -173.686 c 5
EndSplineSet
Validated: 33
EndChar

StartChar: porrectusflexusnb3
Encoding: 90 -1 88
Width: 628
VWidth: 2556
Flags: W
LayerCount: 2
Fore
SplineSet
627.986 -344.338 m 5
 628 -503.101 l 6
 628.001 -518.698 622.268 -526.5 611 -526.5 c 4
 607.533 -526.5 603.2 -525.633 598 -523.9 c 4
 516.533 -496.167 416.433 -440.601 297.7 -339.2 c 4
 215.367 -270.733 116.133 -183 0 -40 c 1
 0 157.6 l 1
 132.601 -6.2002 233.259 -108.734 305.601 -178.601 c 4
 440 -308.4 542.25 -353.5 561.7 -356.9 c 5
 607.5 -366 622.667 -353 627.986 -344.338 c 5
EndSplineSet
Validated: 33
EndChar

StartChar: porrectusflexusnb4
Encoding: 91 -1 89
Width: 628
VWidth: 2500
Flags: W
LayerCount: 2
Fore
SplineSet
627.986 -521.016 m 5
 628 -650.899 l 6
 628.002 -666.494 623.133 -674.3 613.601 -674.3 c 4
 609.268 -674.3 604.067 -691 598 -688.399 c 4
 448.206 -617.618 231.179 -394.498 0 -54 c 1
 0 161.601 l 1
 61.5332 47.2002 162.165 -69.7559 301.601 -247.5 c 4
 392.664 -363.583 450 -433 538.9 -504.199 c 4
 561.555 -522.343 605.333 -525.667 627.986 -521.016 c 5
EndSplineSet
Validated: 33
EndChar

StartChar: porrectusflexusnb5
Encoding: 92 -1 90
Width: 931
VWidth: 2048
Flags: W
LayerCount: 2
Fore
SplineSet
931 -676.5 m 1
 931 -816 l 2
 931 -818.229 930.646 -817.992 928.76 -817.591 c 1
 351 -692 54 -249 0 -34 c 1
 0 183 l 2
 0 187.739 5.35547 186.627 7 182.75 c 0
 122.5 -89.5 359.5 -560.5 886 -680.5 c 1
 908 -685 931 -684.35 931 -676.5 c 1
EndSplineSet
Validated: 33
EndChar

StartChar: p2base
Encoding: 94 -1 91
Width: 166
VWidth: 2613
Flags: W
HStem: -12.2998 164.401<0 147.706>
VStem: 0 166<-8.23266 145.622> 148 18<157.262 185>
LayerCount: 2
Fore
SplineSet
74.2998 -12.2998 m 0xc0
 51.3535 -12.2998 36 -11.5 27 -10 c 0
 9.9722 -7.16203 0 -4.43555 0 2.5 c 2
 0 143 l 2xc0
 0 149.067 2.16699 152.101 6.5 152.101 c 2
 10.4004 152.101 l 2
 14.7334 151.233 29.5332 145.8 69.4004 145.8 c 0
 81.8047 145.8 92.5234 146.61 101.668 146.61 c 0
 131.756 146.61 148 158.366 148 176 c 1
 148 185 l 1
 166 185 l 1xa0
 166 3.7998 l 2
 166 -4.31055 136.757 -12.5137 107.375 -12.5137 c 0
 94.999 -12.5137 94.9414 -12.2998 74.2998 -12.2998 c 0xc0
EndSplineSet
Validated: 1
EndChar

StartChar: PesOneNothing
Encoding: 95 -1 92
Width: 166
VWidth: 2613
Flags: W
HStem: -26.5137 150.124<0 147.556> 185.8 157.7<20.8252 142.108>
VStem: 0 166<-26.264 123.599> 11 155<185.8 331.15> 148 18<125.692 168.397>
LayerCount: 2
Fore
SplineSet
79.2998 -26.2998 m 4xe0
 56.3535 -26.2998 39.9717 -26.5459 28.3018 -26.5459 c 4
 3.54395 -26.5459 0 -25.4355 0 -18.5 c 6
 0 116 l 6xe0
 0 122.067 2.16699 125.101 6.5 125.101 c 6
 10.4004 125.101 l 6
 14.7334 124.233 35.5332 123.8 75.4004 123.8 c 4
 87.8047 123.8 98.5234 123.61 107.668 123.61 c 4
 137.756 123.61 148 123.366 148 141 c 2
 148 141.199 l 2xc8
 148 169 130.521 185.8 89.3994 185.8 c 0
 59.0674 185.8 30.9326 178.867 11 165 c 1
 11 294.1 l 2
 11 327.032 39.1328 343.5 89.3994 343.5 c 0
 122.55 343.5 166 333.619 166 294.1 c 2xd0
 166 -17.2002 l 6
 166 -25.3105 157.757 -26.5137 128.375 -26.5137 c 4
 115.999 -26.5137 99.9414 -26.2998 79.2998 -26.2998 c 4xe0
EndSplineSet
Validated: 33
EndChar

StartChar: rvlbase
Encoding: 96 -1 93
Width: 166
VWidth: 2637
Flags: W
HStem: -10.2998 179.4<18.8626 147.448>
VStem: 0 18<-53 -24.3222> 147.8 18.2<-372.149 -26.327>
LayerCount: 2
Fore
SplineSet
154.3 -373.1 m 5
 149.1 -373.1 147.8 -371.54 147.8 -326.3 c 6
 147.8 -32.4004 l 1
 140.667 -25.334 109.658 -9.60254 82.7998 -10.2998 c 0
 54.9365 -11.0234 34 -18.916 18 -29.5322 c 1
 18 -49.667 18.0107 -40.0137 18 -53 c 1
 8.01074 -53.0137 15.667 -53 0 -53 c 1
 0 121 l 2
 0 153.067 26.25 169.1 82.1494 169.1 c 0
 138.05 169.1 166 153.067 166 121 c 2
 166 -352.3 l 6
 166 -364.433 162.1 -371.367 154.3 -373.1 c 5
EndSplineSet
Validated: 33
EndChar

StartChar: msdeminutus
Encoding: 97 -1 94
Width: 168
VWidth: 2048
Flags: W
HStem: -23 174<30.3282 150>
VStem: 0 18<-63 -43.2308> 150 18<151 177>
LayerCount: 2
Fore
SplineSet
150 177 m 1
 150 177 150 177 168 177 c 1
 168 -28 l 1
 166 -26 156 -23 150 -23 c 0
 137 -23 76 -28 69 -30 c 0
 44 -35 37 -37 30 -41 c 0
 22 -46 18 -53 18 -63 c 0
 18 -63 7.01953 -63 0 -63 c 25
 0 117 l 21
 0 124 11.0615 127.5 13.625 128.375 c 4
 43.625 138.858 96.5 151 150 151 c 1
 150 177 l 1
EndSplineSet
Validated: 1
EndChar

StartChar: mademinutus
Encoding: 98 -1 95
Width: 168
VWidth: 2048
Flags: W
HStem: -3.5 180.478<18 142.182>
VStem: 0 18<176.978 196.5> 150 18<-43.999 -24.3816>
LayerCount: 2
Fore
SplineSet
0 -9.00195 m 1
 0 196.5 l 1
 17.5 196.5 8 196.5 18 196.5 c 1
 17.5 186.5 18 191.5 18 176.978 c 1
 18.6436 176.999 19.31 177.006 20 177 c 0
 73.5 176.5 124.375 164.858 154.375 154.375 c 1
 156.938 153.5 167.999 150.004 168 143.341 c 9
 168 -43.999 l 25
 150 -43.999 l 0
 149.5 -33.5 146.312 -27.0566 137.875 -22.25 c 0
 131 -18.333 123.5 -15.5 99.25 -10.75 c 0
 92.3412 -9.39673 32.25 -3.25 19 -3.5 c 0
 12.7287 -3.61833 1.5 -7 0 -9.00195 c 1
EndSplineSet
Validated: 33
EndChar

StartChar: PunctumCavum.caeciliae
Encoding: 99 -1 96
Width: 166
VWidth: 2612
Flags: W
HStem: -8.40039 15.6006<55.6906 112.182> 129.4 40.3<40.1913 128.784>
VStem: -0.200195 24.7002<31.6593 105.799> 144.1 22.1<33.9157 103.875>
LayerCount: 2
Fore
SplineSet
83 129.4 m 0
 51.9922 129.4 24.5 103.92 24.5 68.9502 c 0
 24.5 34.0439 51.9893 7.2002 83 7.2002 c 0
 119.66 7.2002 144.1 36.4824 144.1 68.9502 c 0
 144.1 102.178 119.58 129.4 83 129.4 c 0
82.3496 169.7 m 0
 138.25 169.7 166.2 153.667 166.2 121.6 c 2
 166.2 -35.7002 l 1
 148 -17.5 120.268 -8.40039 83 -8.40039 c 0
 44.8672 -8.40039 18 -17.5 -0.200195 -35.7002 c 1
 -0.200195 121.6 l 2
 -0.200195 153.667 26.4502 169.7 82.3496 169.7 c 0
EndSplineSet
Validated: 1
EndChar

StartChar: LineaPunctumCavum.caeciliae
Encoding: 100 -1 97
Width: 266
VWidth: 2048
Flags: W
HStem: -409 15 -94 15 221 15 536 15
LayerCount: 2
Fore
SplineSet
134 130 m 4
 102.992 130 75.5 104.52 75.5 69.5498 c 4
 75.5 34.6436 102.989 7.7998 134 7.7998 c 4
 170.66 7.7998 195.1 37.082 195.1 69.5498 c 4
 195.1 102.777 170.58 130 134 130 c 4
133.35 170.3 m 0
 189.25 170.3 217.2 154.267 217.2 122.199 c 2
 217.2 -35.1006 l 1
 199 -16.9004 171.268 -7.80078 134 -7.80078 c 0
 95.8672 -7.80078 69 -16.9004 50.7998 -35.1006 c 1
 50.7998 122.199 l 2
 50.7998 154.267 77.4502 170.3 133.35 170.3 c 0
266.006 -30.6602 m 2
 266.006 -36.3604 258.371 -40.6602 252.672 -40.6602 c 0
 246.972 -40.6602 240.672 -34.7061 240.672 -29.0059 c 2
 240.818 150.681 l 2
 240.818 156.381 247.639 161.341 253.339 161.341 c 0
 259.038 161.341 265.913 154.727 265.913 149.026 c 2
 266.006 -30.6602 l 2
25.334 -29.334 m 2
 25.334 -35.0342 17.6992 -39.334 12 -39.334 c 0
 6.2998 -39.334 0 -33.3799 0 -27.6797 c 2
 0.146484 152.007 l 2
 0.146484 157.707 6.9668 162.667 12.667 162.667 c 0
 18.3662 162.667 25.2412 156.053 25.2412 150.353 c 2
 25.334 -29.334 l 2
EndSplineSet
Validated: 1
EndChar

StartChar: PunctumCavumHole.caeciliae
Encoding: 101 -1 98
Width: 166
VWidth: 2612
Flags: W
HStem: 1.08984 134.42<35.7379 132.653>
VStem: 18.5195 131.561<18.4265 118.175>
LayerCount: 2
Fore
SplineSet
82.8701 135.51 m 0
 123.108 135.51 150.08 105.565 150.08 69.0156 c 0
 150.08 33.3008 123.196 1.08984 82.8701 1.08984 c 0
 48.7578 1.08984 18.5195 30.6182 18.5195 69.0156 c 0
 18.5195 107.482 48.7617 135.51 82.8701 135.51 c 0
EndSplineSet
Validated: 1
EndChar

StartChar: LineaPunctumCavumHole.caeciliae
Encoding: 102 -1 99
Width: 266
VWidth: 2048
Flags: W
HStem: -409 15 -94 15 221 15 536 15
LayerCount: 2
Fore
SplineSet
133.87 136.11 m 4
 174.108 136.11 201.08 106.165 201.08 69.6152 c 4
 201.08 33.9004 174.196 1.68945 133.87 1.68945 c 4
 99.7578 1.68945 69.5195 31.2178 69.5195 69.6152 c 4
 69.5195 108.081 99.7617 136.11 133.87 136.11 c 4
EndSplineSet
Validated: 1
EndChar

StartChar: PunctumCavumHole
Encoding: 103 -1 100
Width: 166
VWidth: 2612
Flags: W
HStem: 13.6123 129.375<20.1646 146.928>
VStem: 18.6152 129.77<13.6123 136.556>
LayerCount: 2
Fore
SplineSet
82.6133 142.987 m 0
 115.874 142.987 148.401 134.042 148.385 114.963 c 2
 148.3 5.05273 l 1
 134.7 12.7031 99.5791 13.6758 83 13.6123 c 0
 67.7002 13.5527 24.2246 12.2783 18.7002 5.90332 c 1
 18.6152 114.963 l 2
 18.5986 134.042 49.3525 142.987 82.6133 142.987 c 0
EndSplineSet
Validated: 33
EndChar

StartChar: LineaPunctumCavumHole
Encoding: 104 -1 101
Width: 266
VWidth: 2048
Flags: W
HStem: 12.6123 129.375<75.8249 194.975>
VStem: 74.6152 121.77<12.6123 136.367>
LayerCount: 2
Fore
SplineSet
134.613 141.987 m 4
 167.874 141.987 196.399 133.042 196.385 113.963 c 6
 196.3 4.05273 l 5
 182.7 11.7031 151.579 12.6758 135 12.6123 c 4
 119.7 12.5527 80.2246 11.2783 74.7002 4.90332 c 5
 74.6152 113.963 l 6
 74.6006 133.042 101.353 141.987 134.613 141.987 c 4
EndSplineSet
Validated: 33
EndChar

StartChar: NaturalHole
Encoding: 105 -1 102
Width: 108
Flags: W
HStem: 1.64062 133.319
VStem: 19.6201 69.96<13.5195 124.399>
LayerCount: 2
Fore
SplineSet
19.6201 1.64062 m 5
 20.9404 124.399 l 6
 89.5801 134.96 l 5
 89.5801 13.5195 l 1
 19.6201 1.64062 l 5
EndSplineSet
Validated: 1
EndChar

StartChar: FlatHole
Encoding: 106 -1 103
Width: 162
VWidth: 2587
Flags: W
HStem: 7.58594 128.413
VStem: 15.0352 137.28
LayerCount: 2
Fore
SplineSet
15.0352 73.3662 m 1
 15.002 135.999 l 29
 42.2041 132.215 l 1
 90.8252 105.045 l 2
 141.703 74.5137 152.315 64.2148 152.315 33.3262 c 0
 152.315 16.166 143.735 7.58594 126.575 7.58594 c 0
 91.3008 7.58594 15.0352 73.3662 15.0352 73.3662 c 1
EndSplineSet
Validated: 1
EndChar

StartChar: odbase
Encoding: 107 -1 104
Width: 168
VWidth: 2612
Flags: W
HStem: -30.1504 176.8<5.78677 94.3102>
VStem: 0 168<0.28034 145.666> 150 18<-49 -2.48521>
LayerCount: 2
Fore
SplineSet
42.7998 -30.1504 m 0xa0
 11.5996 -30.1504 0 -6.01953 0 20.5 c 2
 0 187 l 1
 0 173 11.5996 146.65 42.7998 146.65 c 0
 73.1924 146.65 97.5713 179.15 128.2 179.15 c 0
 151.6 179.15 168 166.609 168 128 c 2xc0
 168 -49 l 1
 155 -49 160.5 -49 150 -49 c 1
 150 -20 150 -43 150 -7.5 c 1
 144.224 -3.0293 137.585 -0.349609 128.2 -0.349609 c 0
 99.4707 -0.349609 69.3203 -30.1504 42.7998 -30.1504 c 0xa0
EndSplineSet
Validated: 1
EndChar

StartChar: DivisioDominican
Encoding: 108 -1 105
Width: 18
VWidth: 2048
Flags: W
VStem: 0 18<-94 381.034>
LayerCount: 2
Fore
SplineSet
0 -94 m 25
 0 377 l 17
 2.66699 380.667 10.6667 382.333 18 383 c 9
 18 -94 l 25
 0 -94 l 25
EndSplineSet
Validated: 1
EndChar

StartChar: DivisioDominicanAlt
Encoding: 109 -1 106
Width: 18
VWidth: 2048
Flags: W
VStem: 0 18<-240.248 236>
LayerCount: 2
Fore
SplineSet
0 -237 m 9
 0 236 l 25
 18 236 l 25
 18 -241 l 17
 11.6489 -241.01 3.25 -240.75 0 -237 c 9
EndSplineSet
Validated: 1
EndChar

StartChar: Sharp
Encoding: 110 -1 107
Width: 258
VWidth: 2048
Flags: W
HStem: -50.2002 246.4<61.9004 69.5996 116.9 124.6 243.4 251.1 298.4 306.1>
VStem: 0.299805 257.4
LayerCount: 2
Fore
SplineSet
0.299805 183 m 0
 0.299805 189.6 6.90039 196.2 13.5 196.2 c 0
 14.5996 196.2 20.0996 195.1 23.4004 190.7 c 2
 101.5 93.9004 l 1
 112.5 107.1 l 1
 58.5996 175.3 l 2
 56.4004 177.5 55.2998 179.7 55.2998 183 c 0
 55.2998 189.6 61.9004 196.2 68.5 196.2 c 0
 69.5996 196.2 75.0996 195.1 78.4004 190.7 c 2
 129 128 l 1
 179.6 190.7 l 2
 182.9 195.1 188.4 196.2 189.5 196.2 c 0
 196.1 196.2 202.7 189.6 202.7 183 c 0
 202.7 179.7 201.6 177.5 199.4 175.3 c 2
 145.5 107.1 l 1
 156.5 93.9004 l 1
 234.6 190.7 l 2
 237.9 195.1 243.4 196.2 244.5 196.2 c 0
 251.1 196.2 257.7 189.6 257.7 183 c 0
 257.7 179.7 256.6 177.5 254.4 175.3 c 2
 173 73 l 1
 254.4 -29.2998 l 2
 256.6 -31.5 257.7 -33.7002 257.7 -37 c 0
 257.7 -43.5996 251.1 -50.2002 244.5 -50.2002 c 0
 243.4 -50.2002 237.9 -49.0996 234.6 -44.7002 c 2
 156.5 52.0996 l 1
 145.5 38.9004 l 1
 199.4 -29.2998 l 2
 201.6 -31.5 202.7 -33.7002 202.7 -37 c 0
 202.7 -43.5996 196.1 -50.2002 189.5 -50.2002 c 0
 188.4 -50.2002 182.9 -49.0996 179.6 -44.7002 c 2
 129 18 l 1
 78.4004 -44.7002 l 2
 75.0996 -49.0996 69.5996 -50.2002 68.5 -50.2002 c 0
 61.9004 -50.2002 55.2998 -43.5996 55.2998 -37 c 0
 55.2998 -33.7002 56.4004 -31.5 58.5996 -29.2998 c 2
 112.5 38.9004 l 1
 101.5 52.0996 l 1
 23.4004 -44.7002 l 2
 20.0996 -49.0996 14.5996 -50.2002 13.5 -50.2002 c 0
 6.90039 -50.2002 0.299805 -43.5996 0.299805 -37 c 0
 0.299805 -33.7002 1.40039 -31.5 3.59961 -29.2998 c 2
 85 73 l 1
 3.59961 175.3 l 2
 1.40039 177.5 0.299805 179.7 0.299805 183 c 0
129 58.7002 m 5
 140 73 l 5
 129 87.2998 l 5
 118 73 l 5
 129 58.7002 l 5
EndSplineSet
Validated: 1
EndChar

StartChar: SharpHole
Encoding: 111 -1 108
Width: 258
VWidth: 2048
Flags: W
HStem: 57.2705 31.459
VStem: 116.9 24.2
LayerCount: 2
Fore
SplineSet
129 57.2705 m 1
 116.9 73 l 1
 129 88.7295 l 1
 141.1 73 l 1
 129 57.2705 l 1
EndSplineSet
Validated: 1
EndChar

StartChar: Linea
Encoding: 112 -1 109
Width: 431
VWidth: 2612
Flags: W
HStem: -6.09961 154<19 412>
VStem: 0 19<-57.6866 -7.7998 149.5 200.944> 412 19<-57.6866 -7.7998 149.5 200.944>
LayerCount: 2
Fore
SplineSet
19 -54.8037 m 1
 16.5 -56.9473 12.9561 -58.3662 0 -58.5 c 9
 0 201.053 l 17
 7.8623 201.694 12.5 201.553 18.999 199.016 c 1
 19 149.5 l 1
 51 148 160.601 147.9 216.5 147.9 c 0
 272.4 147.9 380 148 412 149.5 c 1
 412.001 199.016 l 1
 418.5 201.553 423.138 201.694 431 201.053 c 9
 431 -58.5 l 17
 418.044 -58.3662 414.5 -56.9473 412 -54.8037 c 1
 412 -7.7998 l 1
 376.5 -6.09961 252.268 -6.09961 215 -6.09961 c 0
 176.867 -6.09961 48.5 -6.09961 19 -7.7998 c 1
 19 -54.8037 l 1
EndSplineSet
Validated: 1
EndChar

StartChar: RoundBrace
Encoding: 113 -1 110
Width: 937
VWidth: 2048
Flags: W
HStem: 864 31<320.267 618.64>
LayerCount: 2
Fore
SplineSet
-1.91563 703.473 m 0
 -1.91563 705.25 -1.33519 707.4 0 710 c 4
 19 747 177.993 895 471 895 c 4
 759.007 895 918 747 937 710 c 4
 938.335 707.4 938.916 705.25 938.916 703.473 c 0
 938.916 695.081 925.968 695 918.439 695 c 2
 918 695 l 6
 909 695 907.881 703.299 899 713 c 4
 780 843 552 864 471 864 c 4
 385 864 157 843 38 713 c 4
 29.1191 703.299 28 695 19 695 c 6
 18.5613 695 l 2
 11.032 695 -1.91563 695.081 -1.91563 703.473 c 0
EndSplineSet
Validated: 1
EndChar

StartChar: CurlyBrace
Encoding: 114 -1 111
Width: 1006
VWidth: 2048
Flags: W
HStem: 698 23.8<274.873 425.269 580.927 731.127> 717.6 25.2<81.6669 244.681 761.319 926.155>
LayerCount: 2
Fore
SplineSet
333.6 698 m 0x80
 252.4 698 200.6 717.6 129.2 717.6 c 0
 36.7998 717.6 17.2002 679.8 7.40039 679.8 c 0
 3.2002 679.8 0.400391 682.6 0.400391 686.8 c 0
 0.400391 693.8 59.2002 742.8 171.2 742.8 c 0x40
 256.6 742.8 309.8 721.8 384 721.8 c 0
 473.6 721.8 493.2 758.2 503 758.2 c 0
 511.4 758.2 533.8 721.8 622 721.8 c 0x80
 696.2 721.8 749.4 742.8 834.8 742.8 c 0
 948.2 742.8 1005.6 693.8 1005.6 686.8 c 0
 1005.6 682.6 1002.8 679.8 998.6 679.8 c 0
 988.8 679.8 969.2 717.6 876.8 717.6 c 0x40
 805.4 717.6 753.6 698 672.4 698 c 0
 610.8 698 550.6 710.6 503 748.4 c 1
 455.4 710.6 395.2 698 333.6 698 c 0x80
EndSplineSet
Validated: 1
EndChar

StartChar: BarBrace
Encoding: 115 -1 112
Width: 591
VWidth: 2048
Flags: W
HStem: 872 27<215.378 372.736>
VStem: 0.0927734 25.1474<682.006 718.741> 566.16 25.147<682.006 718.741>
LayerCount: 2
Fore
SplineSet
0.0927734 690.474 m 0
 0.0927734 692.251 0.458984 694.4 1.2998 697 c 0
 13.2695 734 95.3994 899 295.1 899 c 0
 489 899 578.13 734 590.1 697 c 0
 590.941 694.4 591.307 692.25 591.307 690.474 c 0
 591.307 682.081 583.15 682 578.406 682 c 2
 578.13 682 l 2
 572.46 682 571.363 690.378 566.16 700 c 0
 511 802 402 872 294.899 872 c 0
 182.399 872 80.3994 802 25.2402 700 c 0
 20.0371 690.378 18.9395 682 13.2695 682 c 2
 12.9932 682 l 2
 8.25 682 0.0927734 682.081 0.0927734 690.474 c 0
EndSplineSet
Validated: 1
EndChar

StartChar: OriscusDeminutus.caeciliae
Encoding: 116 -1 113
Width: 168
VWidth: 2612
Flags: W
HStem: 3.65039 175.5<74.5366 132.925>
VStem: 0 168<3.84036 145.666>
LayerCount: 2
Fore
SplineSet
116.5 -61.5 m 1
 116.5 -61.5 145.949 3.65039 128.2 3.65039 c 1
 99.4707 3.65039 66.3203 -30.1504 39.7998 -30.1504 c 0
 8.59961 -30.1504 0 -6.01953 0 20.5 c 2
 0 197 l 1
 0 174.771 8.59961 146.65 39.7998 146.65 c 0
 70.1924 146.65 97.5713 179.15 128.2 179.15 c 0
 151.6 179.15 168 166.609 168 128 c 2
 168 37 l 1
 168 -43 116.5 -61.5 116.5 -61.5 c 1
EndSplineSet
Validated: 33
EndChar

StartChar: OriscusLineBL
Encoding: 117 -1 114
Width: 166
VWidth: 2537
Flags: W
HStem: -37 177<74.049 160.524>
VStem: 0 166<-1.90579 138.793> 0 18<-55 -4.875>
LayerCount: 2
Fore
SplineSet
127 140 m 0xc0
 156 140 166 165 166 190 c 2
 166 14 l 2xc0
 166 -13 158 -37 127 -37 c 0
 106 -37 61 -3 39 -3 c 0
 30 -3 23 -6 18 -9 c 1
 18 -55 l 1
 0 -55 l 1xa0
 -0 4 0 63 0 121 c 0
 -0 160 15 172 39 172 c 0
 61 172 106 140 127 140 c 0xc0
EndSplineSet
Validated: 1
EndChar

StartChar: SalicusOriscus
Encoding: 118 -1 115
Width: 166
VWidth: 2537
Flags: HW
HStem: -37.1504 176.8<74.1705 154.735>
VStem: -0.200195 166.4<-3.28925 139.081> 148.027 17.9728<141.255 159>
LayerCount: 2
Fore
SplineSet
-0.200195 121.45 m 2xc0
 -0.200195 160.06 15.4004 172.15 38.7998 172.15 c 0
 61.2793 172.15 106.118 139.65 127.2 139.65 c 0
 135.712 139.65 142.575 141.764 148.027 145.398 c 1
 148 159 l 1xa0
 166 159 l 1xa0
 166.2 13.5498 l 2
 166.2 -12.9697 158.4 -37.1504 127.2 -37.1504 c 0
 106.136 -37.1504 61.2451 -3.34961 38.7998 -3.34961 c 0
 30.2783 -3.34961 23.4369 -5.54007 18.0129 -9.26288 c 1
 18 -74 l 1
 0 -74 l 1
 -0.200195 121.45 l 2xc0
EndSplineSet
EndChar

StartChar: VirgaReversaDescendens
Encoding: 119 -1 116
Width: 166
VWidth: 2689
Flags: W
HStem: -2 188.5<18.3194 130.579>
VStem: 0 18<-249.775 -3.48473>
LayerCount: 2
Fore
SplineSet
166.399 -65.7002 m 5
 152.525 -11.9395 69.9131 -2 42.9004 -2 c 4
 33.0892 -2 24.7901 -3.33277 18 -5.99832 c 5
 18 -204.5 l 6
 18 -249.74 17.5 -251.3 12.2998 -251.3 c 5
 4.5 -248.7 0 -241.935 0 -230.668 c 6
 0 154 l 6
 0 175.667 11.7002 186.5 35.1006 186.5 c 4
 35.2783 186.5 35.5742 186.5 35.9805 186.5 c 4
 47.0723 186.5 140.456 185.508 166.399 129.3 c 5
 166.399 -65.7002 l 5
EndSplineSet
Validated: 1
EndChar

StartChar: VirgaReversaLongqueueDescendens
Encoding: 120 -1 117
Width: 166
VWidth: 2689
Flags: W
HStem: -2 188.5<18.3194 130.579>
VStem: 0 18<-373.775 -3.48471>
LayerCount: 2
Fore
SplineSet
166.399 -65.7002 m 1
 152.525 -11.9395 69.9131 -2 42.9004 -2 c 0
 33.0892 -2 24.7901 -3.33277 18 -5.99832 c 1
 18 -328.5 l 2
 18 -373.74 17.5 -375.3 12.2998 -375.3 c 1
 4.5 -372.7 0 -365.935 0 -354.668 c 2
 0 154 l 2
 0 175.667 11.7002 186.5 35.1006 186.5 c 0
 35.2783 186.5 35.5742 186.5 35.9805 186.5 c 0
 47.0723 186.5 140.456 185.508 166.399 129.3 c 1
 166.399 -65.7002 l 1
EndSplineSet
Validated: 1
EndChar

StartChar: vbase2
Encoding: 121 -1 118
Width: 166
VWidth: 2637
Flags: W
HStem: -10.2998 179.4<18.5519 147.137>
VStem: 0 18.2002<-352.849 -26.3269> 148 18<-53 -24.3221>
LayerCount: 2
Fore
SplineSet
11.7002 -353.8 m 1
 3.90039 -352.067 0 -345.133 0 -333 c 2
 0 121 l 2
 0 153.067 27.9502 169.1 83.8506 169.1 c 0
 139.75 169.1 166 153.067 166 121 c 2
 166 -53 l 1
 150.333 -53 157.989 -53.0137 148 -53 c 1
 147.989 -40.0137 148 -49.6667 148 -29.5322 c 1
 132 -18.9158 111.064 -11.0234 83.2002 -10.2998 c 0
 56.3421 -9.60235 25.333 -25.334 18.2002 -32.4004 c 1
 18.2002 -307 l 2
 18.2002 -352.24 16.9004 -353.8 11.7002 -353.8 c 1
EndSplineSet
Validated: 33
EndChar

StartChar: vbase3
Encoding: 122 -1 119
Width: 166
VWidth: 2637
Flags: W
HStem: -10.2998 179.4<18.5519 147.137>
VStem: 0 18.2002<-509.849 -26.3269> 148 18<-53 -24.3221>
LayerCount: 2
Fore
SplineSet
11.7002 -510.8 m 5
 3.90039 -509.067 0 -502.133 0 -490 c 6
 0 121 l 2
 0 153.067 27.9502 169.1 83.8506 169.1 c 0
 139.75 169.1 166 153.067 166 121 c 2
 166 -53 l 1
 150.333 -53 157.989 -53.0137 148 -53 c 1
 147.989 -40.0137 148 -49.6667 148 -29.5322 c 1
 132 -18.9158 111.064 -11.0234 83.2002 -10.2998 c 0
 56.3421 -9.60235 25.333 -25.334 18.2002 -32.4004 c 1
 18.2002 -464 l 6
 18.2002 -509.24 16.9004 -510.8 11.7002 -510.8 c 5
EndSplineSet
Validated: 33
EndChar

StartChar: vbase4
Encoding: 123 -1 120
Width: 166
VWidth: 2637
Flags: W
HStem: -10.2998 179.4<18.5519 147.137>
VStem: 0 18.2002<-667.849 -26.3269> 148 18<-53 -24.3221>
LayerCount: 2
Fore
SplineSet
11.7002 -668.8 m 1
 3.90039 -667.067 0 -660.133 0 -648 c 2
 0 121 l 2
 0 153.067 27.9502 169.1 83.8506 169.1 c 0
 139.75 169.1 166 153.067 166 121 c 2
 166 -53 l 1
 150.333 -53 157.989 -53.0137 148 -53 c 1
 147.989 -40.0137 148 -49.6667 148 -29.5322 c 1
 132 -18.9158 111.064 -11.0234 83.2002 -10.2998 c 0
 56.3421 -9.60235 25.333 -25.334 18.2002 -32.4004 c 1
 18.2002 -622 l 2
 18.2002 -667.24 16.9004 -668.8 11.7002 -668.8 c 1
EndSplineSet
Validated: 33
EndChar

StartChar: vbase5
Encoding: 124 -1 121
Width: 166
VWidth: 2637
Flags: W
HStem: -10.2998 179.4<18.5519 147.137>
VStem: 0 18.2002<-824.849 -26.3269> 148 18<-53 -24.3221>
LayerCount: 2
Fore
SplineSet
11.7002 -825.8 m 5
 3.90039 -824.067 0 -817.133 0 -805 c 6
 0 121 l 2
 0 153.067 27.9502 169.1 83.8506 169.1 c 0
 139.75 169.1 166 153.067 166 121 c 2
 166 -53 l 1
 150.333 -53 157.989 -53.0137 148 -53 c 1
 147.989 -40.0137 148 -49.6667 148 -29.5322 c 1
 132 -18.9158 111.064 -11.0234 83.2002 -10.2998 c 0
 56.3421 -9.60235 25.333 -25.334 18.2002 -32.4004 c 1
 18.2002 -779 l 6
 18.2002 -824.24 16.9004 -825.8 11.7002 -825.8 c 5
EndSplineSet
Validated: 33
EndChar

StartChar: vbase1
Encoding: 125 -1 122
Width: 166
VWidth: 2637
Flags: W
HStem: -9.2998 179.4<18.4091 157.234>
VStem: 0 166<-9.2998 158.075> 0 17.7998<-192.301 -25.0336>
LayerCount: 2
Fore
SplineSet
11.2998 -193.1 m 1xa0
 3.5 -191.367 0 -184.433 0 -172.3 c 2xa0
 0 122 l 2
 0 154.067 27.5498 170.1 83.4502 170.1 c 0
 139.35 170.1 166 154.067 166 122 c 2
 166 -35.2998 l 1xc0
 148.667 -17.9668 121.8 -9.2998 82.7998 -9.2998 c 0
 55.9326 -9.2998 34.2666 -16.667 17.7998 -31.4004 c 1
 17.7998 -146.3 l 2
 17.7998 -191.54 16.5 -193.1 11.2998 -193.1 c 1xa0
EndSplineSet
Validated: 1
EndChar

StartChar: OriscusScapusLongqueue
Encoding: 126 -1 123
Width: 166
VWidth: 2537
Flags: W
HStem: -3.34961 175.5<19.1661 92.8347>
VStem: 0 18.7998<-373.955 -4.69916>
LayerCount: 2
Fore
SplineSet
-0 122.666 m 1
 -0 161.276 15.4004 172.15 38.7998 172.15 c 0
 61.2793 172.15 106.118 139.65 127.2 139.65 c 0
 156.411 139.65 166 164.195 166 190 c 1
 166 13 l 6
 166 -13.5195 158.4 -37.1504 127.2 -37.1504 c 0
 106.136 -37.1504 61.2451 -3.34961 38.7998 -3.34961 c 0
 30.4809 -3.34961 23.6299 -5.4375 18.666 -9.35352 c 1
 18.7998 -328.5 l 2
 18.8184 -373.741 17.5 -375.3 12.2998 -375.3 c 1
 4.5 -372.7 0.0146484 -365.935 0 -354.668 c 1
 0 -196.667 -0 -35.335 -0 122.666 c 1
EndSplineSet
Validated: 33
EndChar

StartChar: OriscusScapus
Encoding: 127 -1 124
Width: 166
VWidth: 2537
Flags: W
HStem: -3.34961 175.5<18.3232 92.8347>
VStem: 0 17.7998<-250.301 -5.35649>
LayerCount: 2
Fore
SplineSet
-0.200195 121.45 m 2
 -0.222656 160.06 15.4004 172.15 38.7998 172.15 c 0
 61.2793 172.15 106.118 139.65 127.2 139.65 c 0
 156.411 139.65 166 164.195 166 190 c 1
 166 13 l 6
 166 -13.5195 158.4 -37.1504 127.2 -37.1504 c 0
 106.136 -37.1504 61.2451 -3.34961 38.7998 -3.34961 c 0
 30.0989 -3.34961 23.3105 -5.96582 17.833 -9.80957 c 1
 17.7998 -204.3 l 2
 17.792 -249.54 16.5 -251.1 11.2998 -251.1 c 1
 3.5 -249.367 0.00683594 -242.433 0 -230.3 c 2
 -0.200195 121.45 l 2
EndSplineSet
Validated: 33
EndChar

StartChar: osbase1
Encoding: 128 -1 125
Width: 166
VWidth: 2537
Flags: W
HStem: -3.34961 175.5<17.8372 92.8347>
VStem: 0 17.7998<-192.301 -5.07503>
LayerCount: 2
Fore
SplineSet
-0.200195 121.45 m 2
 -0.226562 160.06 15.4004 172.15 38.7998 172.15 c 0
 61.2793 172.15 106.118 139.65 127.2 139.65 c 0
 156.411 139.65 166 164.195 166 190 c 1
 166 13 l 6
 166 -13.5195 158.4 -37.1504 127.2 -37.1504 c 0
 106.136 -37.1504 61.2451 -3.34961 38.7998 -3.34961 c 0
 30.0989 -3.34961 23.1497 -5.63326 17.6719 -9.5 c 1
 17.7998 -146.3 l 2
 17.8418 -191.54 16.5 -193.1 11.2998 -193.1 c 1
 3.5 -191.367 0.0078125 -184.433 0 -172.3 c 2
 -0.200195 121.45 l 2
EndSplineSet
Validated: 33
EndChar

StartChar: osbase2
Encoding: 129 -1 126
Width: 166
VWidth: 2537
Flags: W
HStem: -3.34961 175.5<18.3506 92.8347>
VStem: 0 18.2002<-352.849 -4.93091> 148 18<-53 -32.6729>
LayerCount: 2
Fore
SplineSet
0 121 m 2
 0 159.61 15.4004 172.15 38.7998 172.15 c 0
 61.2793 172.15 106.118 139.65 127.2 139.65 c 0
 156.411 139.65 166 164.195 166 190 c 5
 166 -53 l 1
 150.333 -53 157.989 -53.0137 148 -53 c 1
 147.989 -40.0137 148 -52.8076 148 -32.6729 c 1
 142.692 -35.7363 135.586 -37.1504 127.2 -37.1504 c 0
 106.136 -37.1504 61.2451 -3.34961 38.7998 -3.34961 c 0
 30.2247 -3.34961 23.2744 -5.56738 17.834 -9.34668 c 1
 18.2002 -307 l 2
 18.2559 -352.239 16.9004 -353.8 11.7002 -353.8 c 1
 3.90039 -352.067 0 -345.133 0 -333 c 2
 0 121 l 2
EndSplineSet
Validated: 33
EndChar

StartChar: osbase3
Encoding: 130 -1 127
Width: 166
VWidth: 2537
Flags: W
HStem: -3.34961 175.5<18.3506 92.8347>
VStem: 0 18.2002<-509.849 -4.93091> 148 18<-53 -32.6729>
LayerCount: 2
Fore
SplineSet
18.2002 -464 m 2
 18.2363 -509.24 16.9004 -510.8 11.7002 -510.8 c 1
 3.90039 -509.067 0 -502.133 0 -490 c 2
 0 121 l 2
 0 159.61 15.4004 172.15 38.7998 172.15 c 0
 61.2793 172.15 106.118 139.65 127.2 139.65 c 0
 156.411 139.65 166 164.195 166 190 c 1
 166 -53 l 1
 150.333 -53 157.989 -53.0137 148 -53 c 1
 147.989 -40.0137 148 -52.8076 148 -32.6729 c 1
 142.692 -35.7363 135.586 -37.1504 127.2 -37.1504 c 0
 106.136 -37.1504 61.2451 -3.34961 38.7998 -3.34961 c 0
 30.2247 -3.34961 23.2744 -5.56738 17.834 -9.34668 c 1
 18.2002 -464 l 2
EndSplineSet
Validated: 33
EndChar

StartChar: osbase4
Encoding: 131 -1 128
Width: 166
VWidth: 2537
Flags: W
HStem: -3.34961 175.5<18.3506 92.8347>
VStem: 0 18.2002<-667.849 -4.93091> 148 18<-53 -32.6729>
LayerCount: 2
Fore
SplineSet
18.2002 -622 m 6
 18.2275 -667.24 16.9004 -668.8 11.7002 -668.8 c 1
 3.90039 -667.067 0 -660.133 0 -648 c 2
 0 121 l 2
 0 159.605 15.4004 172.15 38.7998 172.15 c 0
 61.2793 172.15 106.118 139.65 127.2 139.65 c 0
 156.411 139.65 166 164.195 166 190 c 1
 166 -53 l 1
 150.333 -53 157.989 -53.0137 148 -53 c 1
 147.989 -40.0137 148 -52.8076 148 -32.6729 c 1
 142.692 -35.7363 135.586 -37.1504 127.2 -37.1504 c 0
 106.136 -37.1504 61.2451 -3.34961 38.7998 -3.34961 c 0
 30.2247 -3.34961 23.2744 -5.56738 17.834 -9.34668 c 1
 18.2002 -622 l 6
EndSplineSet
Validated: 33
EndChar

StartChar: osbase5
Encoding: 132 -1 129
Width: 166
VWidth: 2537
Flags: W
HStem: -3.34961 175.5<18.3506 92.8347>
VStem: 0 18.2002<-824.849 -4.93091> 148 18<-53 -32.6729>
LayerCount: 2
Fore
SplineSet
18.2002 -779 m 2
 18.2217 -824.24 16.9004 -825.8 11.7002 -825.8 c 1
 3.90039 -824.067 0 -817.133 0 -805 c 2
 0 121 l 2
 0 159.608 15.4004 172.15 38.7998 172.15 c 0
 61.2793 172.15 106.118 139.65 127.2 139.65 c 0
 156.411 139.65 166 164.195 166 190 c 5
 166 -53 l 1
 150.333 -53 157.989 -53.0137 148 -53 c 1
 147.989 -40.0137 148 -52.8076 148 -32.6729 c 1
 142.692 -35.7363 135.586 -37.1504 127.2 -37.1504 c 0
 106.136 -37.1504 61.2451 -3.34961 38.7998 -3.34961 c 0
 30.2247 -3.34961 23.2744 -5.56738 17.834 -9.34668 c 1
 18.2002 -779 l 2
EndSplineSet
Validated: 33
EndChar

StartChar: oslbase
Encoding: 133 -1 130
Width: 166
VWidth: 2537
Flags: W
HStem: -3.34961 175.5<18.3506 92.8347>
VStem: 0 18.2002<-377.849 -4.93091> 148 18<-53 -32.6729>
LayerCount: 2
Fore
SplineSet
18.2002 -332 m 2
 18.252 -377.24 16.9004 -378.8 11.7002 -378.8 c 1
 3.90039 -377.067 0 -370.133 0 -358 c 2
 0 121 l 2
 0 159.61 15.4004 172.15 38.7998 172.15 c 0
 61.2793 172.15 106.118 139.65 127.2 139.65 c 0
 156.411 139.65 166 164.195 166 190 c 5
 166 -53 l 1
 150.333 -53 157.989 -53.0137 148 -53 c 1
 147.989 -40.0137 148 -52.8076 148 -32.6729 c 1
 142.692 -35.7363 135.586 -37.1504 127.2 -37.1504 c 0
 106.136 -37.1504 61.2451 -3.34961 38.7998 -3.34961 c 0
 30.2247 -3.34961 23.2744 -5.56738 17.834 -9.34668 c 1
 18.2002 -332 l 2
EndSplineSet
Validated: 33
EndChar

StartChar: StrophaAucta
Encoding: 134 -1 131
Width: 172
VWidth: 2048
Flags: W
VStem: -0 170
LayerCount: 2
Fore
SplineSet
70 -129 m 0
 77.859 -116.525 80 -112 89 -87 c 0
 102 -37 81 2 69 18 c 0
 45 50 -0 75 -0 75 c 1
 82 200 l 1
 82 200 164 132 170 71 c 0
 178 -17 157 -50 129 -94 c 0
 105 -119 88.859 -126.15 76 -133 c 0
 74.0265 -134.051 70.859 -135.9 69 -134 c 0
 67.8376 -132.812 68.9399 -130.683 70 -129 c 0
EndSplineSet
Validated: 33
EndChar

StartChar: Stropha
Encoding: 135 -1 132
Width: 172
VWidth: 2048
Flags: W
HStem: -66 266
VStem: -0 170
LayerCount: 2
Fore
SplineSet
70 -62 m 4
 79.8649 -53.4222 88.9512 -29.3285 85 -13 c 0
 81 -1 78 11 68 23 c 0
 41 54 -0 75 -0 75 c 1
 82 200 l 1
 82 200 160 148 170 95 c 24
 179 42 138.837 -22.7 124 -36 c 0
 107.669 -50.639 84.5958 -64.269 76 -66 c 0
 71.2531 -66.9559 71 -67 69 -67 c 0
 67 -67 65 -67 65 -66 c 0
 65 -65 68.1093 -63.644 70 -62 c 4
EndSplineSet
Validated: 33
EndChar

StartChar: hepisemaleft
Encoding: 81 -1 133
Width: 1
VWidth: 2048
Flags: W
HStem: 64 32<0 1>
VStem: -2 3<64 96> 0 1<64 96>
LayerCount: 2
Fore
SplineSet
-2 64 m 25xc0
 0 96 l 29xa0
 1 96 l 29
 1 64 l 25
 -2 64 l 25xc0
EndSplineSet
Validated: 1
EndChar

StartChar: porrectusam11
Encoding: 136 -1 134
Width: 503
VWidth: 2553
Flags: W
HStem: -409 15 -94 15 221 15 536 15
LayerCount: 2
Fore
SplineSet
471.85 -201.2 m 4
 315.859 -201.2 150.71 -172.379 0 -40 c 5
 0 157.601 l 5
 47.667 110.8 126.963 58.4531 237.85 0.299805 c 4
 289.005 -26.5283 357 -40.7998 415.75 -40 c 4
 451.28 -39.5166 476.333 -23.5322 485 9.40039 c 5
 485 37.2002 l 5
 503 37.2002 l 5
 503 -183 l 6
 503 -195.133 492.65 -201.2 471.85 -201.2 c 4
EndSplineSet
Validated: 33
EndChar

StartChar: porrectusam12
Encoding: 137 -1 135
Width: 629
VWidth: 2575
Flags: W
HStem: -374 172.2<478.983 597.928>
VStem: 610 18<-176.064 -131.1>
LayerCount: 2
Fore
SplineSet
628 -354.1 m 1
 628.006 -361.908 616.933 -373.562 597 -374 c 1
 512.933 -374 412.48 -336.605 295.4 -262.2 c 0
 162.892 -177.99 65 -99.2676 0 -25.5996 c 1
 0 172 l 1
 139.94 -11.6719 354.969 -174.639 540.9 -201.8 c 1
 552.601 -201.8 l 2
 579.468 -201.8 610 -177.6 610 -152.4 c 2
 610 -131.1 l 1
 628 -131.1 l 1
 628 -354.1 l 1
EndSplineSet
Validated: 33
EndChar

StartChar: porrectusam13
Encoding: 138 -1 136
Width: 678
VWidth: 2556
Flags: W
VStem: 660 18<-358.866 -326>
LayerCount: 2
Fore
SplineSet
644 -536 m 0
 549 -509.2 416 -459 298 -357 c 0
 215 -289 116 -183 0 -40 c 1
 0 158 l 1
 133 -6 233 -127 306 -197 c 0
 440 -326 548 -369.2 612 -375 c 0
 631.918 -376.805 660 -360 660 -340 c 1
 660 -326 l 1
 678 -326 l 1
 678 -511 l 2
 678 -527 668 -539 657 -539 c 0
 654 -539 649.183 -537.462 644 -536 c 0
EndSplineSet
Validated: 33
EndChar

StartChar: porrectusam14
Encoding: 139 -1 137
Width: 721
VWidth: 2500
Flags: W
HStem: -722.3 187<651.833 713.367>
VStem: 703 18<-515.05 -470.399>
LayerCount: 2
Fore
SplineSet
691 -717.399 m 0
 370.167 -561 250 -440 0 -54 c 1
 0 168.601 l 1
 61.5332 54.2002 159.01 -94.2767 301.601 -269.5 c 0
 437.5 -436.5 532.167 -502 629.9 -531.199 c 4
 640.038 -534.228 648.367 -535.3 655.3 -535.3 c 0
 673.5 -535.3 693.467 -530.8 703 -491.8 c 1
 703 -470.399 l 1
 721 -470.399 l 1
 721 -679.899 l 2
 721 -695.495 718.133 -722.3 708.601 -722.3 c 0
 704.268 -722.3 696.933 -720.292 691 -717.399 c 0
EndSplineSet
Validated: 1
EndChar

StartChar: porrectusam15
Encoding: 140 -1 138
Width: 933
VWidth: 2048
Flags: W
HStem: -847.3 167<857.513 925.367>
VStem: 915 18<-652.88 -605.399>
LayerCount: 2
Fore
SplineSet
903 -842.399 m 0
 471 -707 254 -471.751 0 -54 c 1
 0 168.601 l 1
 61.5332 54.2002 264.258 -242.258 424 -402 c 4
 580 -558 667 -632 851.9 -678.199 c 0
 862.165 -680.764 866.367 -680.3 873.3 -680.3 c 0
 891.5 -680.3 905.467 -665.8 915 -626.8 c 1
 915 -605.399 l 1
 933 -605.399 l 1
 933 -804.899 l 2
 933 -820.495 930.133 -847.3 920.601 -847.3 c 0
 916.268 -847.3 909.298 -844.373 903 -842.399 c 0
EndSplineSet
Validated: 1
EndChar

StartChar: RoundBraceDown
Encoding: 141 -1 139
Width: 937
VWidth: 2048
Flags: W
HStem: 55 31<320.267 618.64>
LayerCount: 2
Fore
SplineSet
-1.91602 246.527 m 0
 -1.91602 254.919 11.0322 255 18.5615 255 c 2
 19 255 l 2
 28 255 29.1191 246.701 38 237 c 0
 157 107 385 86 471 86 c 0
 552 86 780 107 899 237 c 0
 907.881 246.701 909 255 918 255 c 2
 918.439 255 l 2
 925.968 255 938.916 254.919 938.916 246.527 c 0
 938.916 244.75 938.335 242.6 937 240 c 0
 918 203 759.007 55 471 55 c 0
 177.993 55 19 203 0 240 c 0
 -1.33496 242.6 -1.91602 244.75 -1.91602 246.527 c 0
EndSplineSet
Validated: 1
EndChar

StartChar: OriscusDeminutus
Encoding: 63 -1 140
Width: 168
VWidth: 0
Flags: W
HStem: 12.6504 166.5<74.0922 133.444>
VStem: -0 168<13.4588 145.666>
LayerCount: 2
Fore
SplineSet
89 -65 m 1
 89 -65 124.873 -42.9766 129.999 -25.6836 c 0
 134.486 -10.5449 136.485 12.6504 128.2 12.6504 c 0
 116.035 12.6504 103.078 12.5898 90.167 5.60156 c 0
 72.5859 -3.91406 55.0908 -24.1504 39.7998 -24.1504 c 0
 8.59961 -24.1504 -0 -6.01953 -0 20.5 c 2
 -0 197 l 2
 -0 174.771 8.59961 146.65 39.7998 146.65 c 0
 70.1924 146.65 97.5713 179.15 128.2 179.15 c 0
 151.6 179.15 168 166.609 168 128 c 2
 168 37 l 2
 168 -54 89 -65 89 -65 c 1
EndSplineSet
Validated: 33
EndChar

StartChar: PunctumInclinatumAuctus
Encoding: 93 -1 141
Width: 185
VWidth: 0
Flags: W
HStem: -71.8662 271.7
VStem: -0.0927734 185.306
LayerCount: 2
Fore
SplineSet
65.2959 -71.8662 m 0
 65.0352 -71.207 66.9351 -71.0073 71 -67 c 1
 71 -67 88 -49 79 -24 c 1
 56.0605 22 -0.0927734 63.9004 -0.0927734 63.9004 c 1
 79.9277 199.834 l 1
 185.213 78.624 l 1
 185.213 78.624 164.717 35.876 130.061 -15 c 0
 118.393 -31.7139 109.061 -46 94.0605 -59 c 1
 80.9023 -69.0273 65.6895 -72.8594 65.2959 -71.8662 c 0
EndSplineSet
Validated: 33
EndChar

StartChar: VirgaReversaAscendens_op
Encoding: 142 -1 142
Width: 166
VWidth: 2684
Flags: W
HStem: -57.25 189.801<18.0685 128.646>
VStem: 0 17.75<133.625 379.308> 148.004 17.997<161.551 301.849>
LayerCount: 2
Fore
SplineSet
166 0 m 1
 139.165 -55.9062 46.9414 -57.252 35.9141 -57.252 c 2
 34.9004 -57.25 l 2
 11.5 -57.25 0 -47.7324 0 -25.1992 c 2
 0.5 360.668 l 6
 0.5 371.935 5 378.7 12.7998 381.3 c 5
 18 381.3 18.5 379.74 18.5 334.5 c 6
 17.75 135.573 l 1
 24.5197 133.448 32.8238 132.551 42.7002 132.551 c 0
 65.8945 132.551 120.304 137.428 148.004 170.001 c 1
 147.801 256 l 2
 147.801 301.24 149.101 302.8 154.301 302.8 c 1
 162.101 301.067 166.001 294.133 166.001 282 c 2
 166 0 l 1
EndSplineSet
Validated: 1
EndChar

StartChar: VirgaReversaLongqueueAscendens_op
Encoding: 143 -1 143
Width: 166
VWidth: 2684
Flags: W
HStem: -57.25 189.801<18.0685 128.646>
VStem: 0 17.75<133.625 503.576> 148.004 17.997<161.551 301.849>
LayerCount: 2
Fore
SplineSet
0 484.668 m 2
 0 495.935 4.5 502.7 12.2998 505.3 c 1
 17.8086 505.3 18.0352 503.831 18 458.5 c 2
 17.75 135.573 l 1
 24.5197 133.448 32.8238 132.551 42.7002 132.551 c 0
 65.8945 132.551 120.304 137.428 148.004 170.001 c 1
 147.801 256 l 2
 147.801 301.24 149.101 302.8 154.301 302.8 c 1
 162.101 301.067 166.001 294.133 166.001 282 c 2
 166 0 l 1
 139.165 -55.9062 46.9414 -57.252 35.9141 -57.252 c 2
 34.9004 -57.25 l 2
 11.5 -57.25 0 -47.7324 0 -25.1992 c 2
 0 484.668 l 2
EndSplineSet
Validated: 33
EndChar

StartChar: VirgaReversaLongqueueDescendens_op
Encoding: 145 -1 144
Width: 168
VWidth: 2048
Flags: W
HStem: -1 188<18.0735 133.663>
VStem: 0 18<-373.775 -3.80307> 149.794 18.2<-172.185 -19.7646>
LayerCount: 2
Fore
SplineSet
167.994 -152.336 m 2
 167.994 -164.469 164.094 -171.402 156.294 -173.136 c 1
 151.094 -173.136 149.794 -171.575 149.794 -126.336 c 2
 150 -39.999 l 0
 149.5 -29.5 145.623 -21.0762 137.875 -18.25 c 0
 112.741 -9.08105 59.3867 -1 35.25 -1 c 0
 29.25 -1 19.5 -7 17.9971 -16.5 c 0
 18 -39 l 1
 18 -328.5 l 1
 15.1199 -373.74 17.8091 -375.3 12.2998 -375.3 c 1
 4.5 -372.7 0 -365.935 0 -354.668 c 2
 0.000976562 173.002 l 1
 4.5 177.5 -2.00488 187.206 20 187 c 0
 73.5 186.5 124.375 168.858 154.375 158.375 c 1
 156.938 157.5 167.999 154.004 168 147.341 c 9
 167.994 -152.336 l 2
EndSplineSet
Validated: 1
EndChar

StartChar: VirgaReversaDescendens_op
Encoding: 144 -1 145
Width: 168
VWidth: 2048
Flags: W
HStem: -1 188<18.0735 133.663>
VStem: 0 18<-249.775 -3.80309> 149.8 18.2<-171.849 -19.7646>
LayerCount: 2
Fore
SplineSet
168 -152 m 6
 168 -164.133 164.1 -171.067 156.3 -172.8 c 5
 151.1 -172.8 149.8 -171.24 149.8 -126 c 6
 150 -39.999 l 0
 149.5 -29.5 145.623 -21.0762 137.875 -18.25 c 0
 112.741 -9.08105 59.3867 -1 35.25 -1 c 0
 29.25 -1 19.5 -7 17.9971 -16.5 c 0
 18 -204.5 l 2
 18 -249.74 17.5 -251.3 12.2998 -251.3 c 1
 4.5 -248.7 0 -241.935 0 -230.668 c 2
 0.000976562 173.002 l 1
 4.5 177.5 -2.00488 187.206 20 187 c 0
 73.5 186.5 124.375 168.858 154.375 158.375 c 1
 156.938 157.5 167.999 154.004 168 147.341 c 9
 168 -152 l 6
EndSplineSet
Validated: 1
EndChar

StartChar: VirgaReversaAscendens
Encoding: 146 -1 146
Width: 166
VWidth: 1149
Flags: W
HStem: -40 189.801<18.6928 130.792>
VStem: 0 17.999<-248.708 -37.2773> 166 0<160.094 213.5>
LayerCount: 2
Fore
SplineSet
0 154 m 2
 0 168 l 1
 6.93359 155.867 21.2334 149.801 42.9004 149.801 c 0
 70.9697 149.801 152.649 160.094 166 213.5 c 1
 166 17.2002 l 1
 139.166 -38.7061 47.1416 -40.002 36.1143 -40.002 c 2
 35.1006 -40 l 2
 28.4574 -40 22.7572 -39.0919 18 -37.2773 c 1
 17.999 -237.928 l 2
 17.999 -283.168 17.5 -251.3 12.2998 -251.3 c 1
 4.5 -248.7 0 -241.935 0 -230.668 c 2
 0 154 l 2
EndSplineSet
Validated: 1
EndChar

StartChar: VirgaReversaLongqueueAscendens
Encoding: 147 -1 147
Width: 166
VWidth: 1149
Flags: W
HStem: -40 189.801<18.6928 130.792>
VStem: 0 18<-373.775 -37.2754> 166 0<160.094 213.5>
LayerCount: 2
Fore
SplineSet
18 -37.2754 m 1
 18 -328.5 l 2
 18 -373.74 17.5 -375.3 12.2998 -375.3 c 1
 4.5 -372.7 0 -365.935 0 -354.668 c 2
 0 154 l 2
 0 168 l 1
 6.93359 155.867 21.2334 149.801 42.9004 149.801 c 0
 70.9697 149.801 152.649 160.094 166 213.5 c 1
 166 17.2002 l 1
 139.166 -38.7061 47.1416 -40.002 36.1143 -40.002 c 2
 35.1006 -40 l 2
 28.4574 -40 22.7572 -39.0919 18 -37.2754 c 1
EndSplineSet
Validated: 1
EndChar

StartChar: PunctumAscendens_op
Encoding: 148 -1 148
Width: 166
VWidth: 1149
Flags: W
HStem: -40 189.801<1.44824 130.956>
VStem: 0 166<-8.83884 149.801> 148 18.001<176.404 301.849>
LayerCount: 2
Fore
SplineSet
166 17.2002 m 1xc0
 139.166 -38.7061 47.1416 -40.002 36.1143 -40.002 c 2
 35.1006 -40 l 2
 11.7002 -40 0 -28.7324 0 -6.19922 c 2
 0 168 l 1xc0
 6.93359 155.867 21.2334 149.801 42.9004 149.801 c 0
 64.6542 149.801 118.608 155.983 148 183.625 c 1
 147.801 256 l 6
 147.801 301.24 149.101 302.8 154.301 302.8 c 5
 162.101 301.067 166.001 294.133 166.001 282 c 6xa0
 166 17.2002 l 1xc0
EndSplineSet
Validated: 1
EndChar

StartChar: PunctumDescendens_op
Encoding: 149 -1 149
Width: 166
VWidth: 1342
Flags: W
HStem: -7.5 181.5<0.219196 130.797>
VStem: 0 166<-7.5 151.125> 147.8 18.2<-171.849 -34.2806>
LayerCount: 2
Fore
SplineSet
166 -152 m 6xa0
 166 -164.133 162.1 -171.067 154.3 -172.8 c 5
 149.1 -172.8 147.8 -171.24 147.8 -126 c 6xa0
 148 -41.4123 l 1
 118.662 -14.1666 70.4245 -7.5 48.9004 -7.5 c 0
 27.2334 -7.5 6.93359 -12 0 -25 c 1
 0 150.5 l 2
 0 168 36 174 48 174 c 0
 73.3184 174 140 177 166 126.5 c 1xc0
 166 -152 l 6xa0
EndSplineSet
Validated: 33
EndChar

StartChar: auctusd1_op
Encoding: 150 -1 150
Width: 166
VWidth: 2689
Flags: W
HStem: -7.40039 188.502<9.28505 129.037>
VStem: 0 18<180 200> 147.8 18.2<-171.849 -35.6133>
LayerCount: 2
Fore
SplineSet
0 200 m 25
 18 200 l 25
 18 180 l 1
 23 181 35.5557 181.102 35.7812 181.102 c 0
 46.873 181.102 140.057 178.208 166 122 c 1
 166 -152 l 2
 166 -164.133 162.1 -171.067 154.3 -172.8 c 1
 149.1 -172.8 147.8 -171.24 147.8 -126 c 2
 148 -43.0813 l 1
 118.287 -14.5691 63.7212 -7.40039 42.7012 -7.40039 c 0
 21.0342 -7.40039 6.93359 -13.9004 0 -26.9004 c 1
 0 200 l 25
EndSplineSet
Validated: 1
EndChar

StartChar: auctusa1_op
Encoding: 151 -1 151
Width: 166
VWidth: 2421
Flags: W
HStem: -52.8008 189.801<18.3153 131.141>
VStem: 0 18<138.285 140.5> 147.812 18.189<162.918 301.849>
LayerCount: 2
Fore
SplineSet
166 3.7002 m 1
 139.165 -52.2061 47.1416 -52.8027 36.1143 -52.8027 c 2
 35.1006 -52.8008 l 2
 11.7002 -52.8008 0 -41.5332 0 -19 c 2
 0 156 l 5
 14.5 155.75 4.5 156 18 156 c 5
 18 147.5 17.75 150.25 18 140.5 c 5
 24.6963 138.133 33.3294 137 42.9004 137 c 0
 64.608 137 118.379 142.738 147.812 170.041 c 1
 147.801 256 l 2
 147.801 301.24 149.101 302.8 154.301 302.8 c 1
 162.101 301.067 166.001 294.133 166.001 282 c 2
 166 3.7002 l 1
EndSplineSet
Validated: 1
EndChar

StartChar: auctusa2_op
Encoding: 152 -1 152
Width: 166
VWidth: 2421
Flags: W
HStem: -42.8008 189.801<18.2237 130.885>
VStem: 0 18<-61 -40.0765> 148 18.375<173.351 301.906>
LayerCount: 2
Fore
SplineSet
148.175 256 m 2
 148.175 301.24 149.475 302.8 154.675 302.8 c 1
 162.475 301.067 166.375 294.133 166.375 282 c 2
 166.4 14.3994 l 1
 139.565 -41.5068 47.1416 -42.8027 36.1143 -42.8027 c 2
 35.1006 -42.8008 l 2
 28.4574 -42.8008 22.7572 -41.8927 18 -40.0765 c 1
 18 -54.5 18 -46 18 -61 c 1
 0 -61 l 2
 0 165.199 l 1
 6.93359 153.066 21.2334 147 42.9004 147 c 0
 64.5688 147 118.423 153.134 148 180.5 c 1
 148.175 256 l 2
EndSplineSet
Validated: 1
EndChar

StartChar: PunctumAuctusLineBL_op
Encoding: 153 -1 153
Width: 166
VWidth: 2689
Flags: W
HStem: -2 188.502<18.318 130.544>
VStem: 0 18<-31 -3.48472> 147.8 18.2<-171.849 -28.305>
LayerCount: 2
Fore
SplineSet
147.812 -35.4977 m 1
 117.924 -7.94356 63.789 -2.00001 42.9004 -2 c 0
 33.0892 -2 24.7887 -3.33277 17.9986 -5.99832 c 1
 18 -21 18 -17 18 -31 c 1
 7 -31 10 -31 0 -31 c 1
 0 154 l 2
 0 175.667 11.7002 186.5 35.1006 186.5 c 0
 35.2783 186.5 35.5742 186.502 35.9805 186.502 c 0
 47.0723 186.502 140.456 185.508 166.399 129.3 c 1
 166 -152 l 2
 166 -164.133 162.1 -171.067 154.3 -172.8 c 1
 149.1 -172.8 147.8 -171.24 147.8 -126 c 2
 147.812 -35.4977 l 1
EndSplineSet
Validated: 1
EndChar

StartChar: pesdeminutus_op
Encoding: 154 -1 154
Width: 166
VWidth: 2684
Flags: W
HStem: -57.25 189.801<18.7647 128.646>
VStem: 0 18<133.543 207.775> 148.004 17.996<161.551 194>
LayerCount: 2
Fore
SplineSet
18 135.495 m 1
 24.7238 133.426 32.945 132.551 42.7002 132.551 c 0
 65.8945 132.551 120.304 137.428 148.004 170.001 c 1
 148.005 194 l 25
 166 194 l 25
 166 0 l 1
 139.165 -55.9062 46.9414 -57.252 35.9141 -57.252 c 2
 34.9004 -57.25 l 2
 11.5 -57.25 0 -47.7324 0 -25.1992 c 2
 0 188.668 l 2
 0 199.935 4.5 206.7 12.2998 209.3 c 1
 17.5 209.3 18 207.74 18 162.5 c 2
 18 135.495 l 1
EndSplineSet
Validated: 1
EndChar

StartChar: PunctumCavumInclinatum
Encoding: 155 -1 155
Width: 185
VWidth: 2612
Flags: W
HStem: -375.785 13.95 -82.835 13.95 210.115 13.95 503.065 13.95
LayerCount: 2
Fore
SplineSet
27.7031 62.8135 m 1
 100.801 -21.0186 l 1
 157.417 73.1201 l 1
 83.7178 157.967 l 1
 27.7031 62.8135 l 1
-0.0927734 60.3877 m 1
 79.9277 196.321 l 1
 185.213 75.1113 l 1
 104.332 -59.373 l 1
 -0.0927734 60.3877 l 1
EndSplineSet
Validated: 1
EndChar

StartChar: PunctumCavumInclinatumAuctus
Encoding: 157 -1 156
Width: 185
VWidth: 0
Flags: W
HStem: -71.8662 271.7
VStem: -0.0927734 185.306
LayerCount: 2
Fore
SplineSet
98.9121 -16.332 m 1
 120.033 1.97049 157.417 74.2324 157.417 74.2324 c 1
 83.7178 159.079 l 1
 29.5576 67.7969 l 1
 41.0579 61.2967 91.5579 6.79673 98.9121 -16.332 c 1
65.2959 -71.8662 m 0
 65.0352 -71.207 66.9351 -71.0073 71 -67 c 1
 71 -67 88 -49 79 -24 c 1
 56.0605 22 -0.0927734 63.9004 -0.0927734 63.9004 c 1
 79.9277 199.834 l 1
 185.213 78.624 l 1
 185.213 78.624 164.717 35.876 130.061 -15 c 0
 118.393 -31.7139 109.061 -46 94.0605 -59 c 1
 80.9023 -69.0273 65.6895 -72.8594 65.2959 -71.8662 c 0
EndSplineSet
Validated: 33
EndChar

StartChar: PunctumCavumInclinatumAuctusHole
Encoding: 158 -1 157
Width: 185
VWidth: 0
Flags: W
HStem: -16.332 175.411
VStem: 29.5576 127.859
LayerCount: 2
Fore
SplineSet
98.9121 -16.332 m 1
 91.5579 6.79673 41.0579 61.2967 29.5576 67.7969 c 1
 83.7178 159.079 l 1
 157.417 74.2324 l 1
 157.417 74.2324 143.07 44.3086 118.811 8.69531 c 0
 110.644 -3.00488 109.413 -7.23242 98.9121 -16.332 c 1
EndSplineSet
Validated: 1
EndChar

StartChar: PunctumCavumInclinatumHole
Encoding: 156 -1 158
Width: 185
VWidth: 2612
Flags: W
HStem: -21.0186 178.986
VStem: 27.7031 129.714
LayerCount: 2
Fore
SplineSet
27.7031 62.8135 m 1
 83.7178 157.967 l 1
 157.417 73.1201 l 1
 100.801 -21.0186 l 1
 27.7031 62.8135 l 1
EndSplineSet
Validated: 1
EndChar

StartChar: OriscusReversusLineTLBR
Encoding: 159 -1 159
Width: 166
VWidth: 2537
Flags: HW
HStem: -37.1504 176.8<11.2647 91.8293>
VStem: -0.200195 166.4<-3.28925 139.081> -0.000198364 17.9728<141.255 159>
LayerCount: 2
Fore
SplineSet
166.2 121.45 m 2xc0
 166 -74 l 1
 148 -74 l 1
 147.987 -9.2627 l 1
 142.562 -5.54004 135.722 -3.34961 127.2 -3.34961 c 0
 104.755 -3.34961 59.8643 -37.1504 38.7998 -37.1504 c 0
 7.59961 -37.1504 -0.200195 -12.9697 -0.200195 13.5498 c 2
 -0 159 l 1xa0
 18 159 l 1xa0
 17.9727 145.398 l 1
 23.4248 141.764 30.2881 139.65 38.7998 139.65 c 0
 59.8818 139.65 104.721 172.15 127.2 172.15 c 0
 150.6 172.15 166.2 160.06 166.2 121.45 c 2xc0
EndSplineSet
EndChar

StartChar: OriscusReversusLineTL
Encoding: 160 -1 160
Width: 166
VWidth: 2537
Flags: HW
HStem: -37.1504 176.8<11.2647 91.8293>
VStem: -0.200195 166.4<-3.28925 139.081> -0.000198364 17.9728<141.255 159>
LayerCount: 2
Fore
SplineSet
18 159 m 1xa0
 17.9727 145.398 l 1
 23.4248 141.764 30.2881 139.65 38.7998 139.65 c 0
 59.8818 139.65 104.721 172.15 127.2 172.15 c 0
 150.6 172.15 166.2 160.06 166.2 121.45 c 2xc0
 166.2 -55.3496 l 1
 166.2 -29.9844 156.915 -3.34961 127.2 -3.34961 c 0
 104.755 -3.34961 59.8643 -37.1504 38.7998 -37.1504 c 0
 7.59961 -37.1504 -0.200195 -12.9697 -0.200195 13.5498 c 2
 -0 159 l 1xa0
 18 159 l 1xa0
EndSplineSet
EndChar

StartChar: UpperPesOneNothing
Encoding: 161 -1 161
Width: 166
VWidth: 2613
Flags: HW
HStem: -26.5137 150.124<30.059 79.2998 107.668 147.556> 185.8 157.7<20.8252 142.108>
VStem: 0 18<-63 -43.2308> 148 18<125.692 141 141.199 168.397>
LayerCount: 2
Fore
SplineSet
79.2998 -26.2998 m 0
 51.467 -26.3018 30.9537 -31.9418 30 -41 c 0
 22 -46 18 -53 18 -63 c 0
 0 -63 l 25
 0 116 l 2
 0 122.067 2.16699 125.101 6.5 125.101 c 2
 10.4004 125.101 l 2
 14.7334 124.233 35.5332 123.8 75.4004 123.8 c 0
 87.8047 123.8 98.5234 123.61 107.668 123.61 c 0
 137.756 123.61 148 123.366 148 141 c 2
 148 141.199 l 2
 148 169 130.521 185.8 89.3994 185.8 c 0
 59.0674 185.8 30.9326 178.867 11 165 c 1
 11 294.1 l 2
 11 327.032 39.1328 343.5 89.3994 343.5 c 0
 122.55 343.5 166 333.619 166 294.1 c 2
 166 -17.2002 l 2
 166 -25.3105 157.757 -26.5137 128.375 -26.5137 c 0
 115.999 -26.5137 99.9414 -26.2998 79.2998 -26.2998 c 0
EndSplineSet
EndChar

StartChar: OriscusScapusLongqueueLineTR
Encoding: 162 -1 162
Width: 166
VWidth: 2537
Flags: HW
HStem: -37.1504 149.15<74.0612 147.679> -3.34961 140.35<19.1218 92.75>
VStem: 0 18.7998<-373.955 -4.69916> 148 18<113.639 159>
LayerCount: 2
Fore
SplineSet
166 13 m 2x70
 166 -13.5195 158.4 -37.1504 127.2 -37.1504 c 0xb0
 106.136 -37.1504 61.2451 -3.34961 38.7998 -3.34961 c 0
 30.4809 -3.34961 23.6299 -5.4375 18.666 -9.35352 c 1
 18.7998 -328.5 l 2
 18.8184 -373.741 17.5 -375.3 12.2998 -375.3 c 1
 4.5 -372.7 0.0146484 -365.935 0 -354.668 c 1
 -0.200195 121.45 l 2
 -0.200195 160.06 15.4004 172.15 38.7998 172.15 c 0
 61.2793 172.15 106.118 139.65 127.2 139.65 c 0
 135.712 139.65 142.575 141.764 148.027 145.398 c 1
 148 159 l 1
 166 159 l 1
 166 13 l 2x70
EndSplineSet
EndChar

StartChar: OriscusScapusLineTR
Encoding: 163 -1 163
Width: 166
VWidth: 2537
Flags: HW
HStem: -37.1504 149.15<74.0612 147.679> -3.34961 140.35<18.3002 92.75>
VStem: 0 17.7998<-250.301 -5.35649> 148 18<113.639 159>
LayerCount: 2
Fore
SplineSet
166 13 m 2x70
 166 -13.5195 158.4 -37.1504 127.2 -37.1504 c 0xb0
 106.136 -37.1504 61.2451 -3.34961 38.7998 -3.34961 c 0
 30.0989 -3.34961 23.3105 -5.96582 17.833 -9.80957 c 1
 17.7998 -204.3 l 2
 17.792 -249.54 16.5 -251.1 11.2998 -251.1 c 1
 3.5 -249.367 0.00683594 -242.433 0 -230.3 c 2
 -0.200195 121.45 l 2
 -0.200195 160.06 15.4004 172.15 38.7998 172.15 c 0
 61.2793 172.15 106.118 139.65 127.2 139.65 c 0
 135.712 139.65 142.575 141.764 148.027 145.398 c 1
 148 159 l 1
 166 159 l 1
 166 13 l 2x70
EndSplineSet
EndChar

StartChar: OriscusCavum
Encoding: 164 -1 164
Width: 166
VWidth: 2537
Flags: W
HStem: -55.3496 245.7
VStem: -0.200195 20.7578<13.3018 143.132> 145.441 20.7586<-8.87925 122.649>
LayerCount: 2
Fore
SplineSet
105.722 121.649 m 4
 90.5117 126.856 63.46 141.447 46.9775 146.04 c 4
 29.6621 150.865 20.5576 136.966 20.5576 107.989 c 6
 20.5576 13.3018 l 5
 29.1074 18.0879 40.1895 20.8984 60.2783 14.3281 c 4
 76.5156 9.0166 103.485 -6.95801 119.022 -11.04 c 4
 142.067 -17.0947 145.441 7.10742 145.441 27.0098 c 6
 145.441 122.649 l 5
 136.892 119.433 125.398 114.913 105.722 121.649 c 4
127.2 139.65 m 0
 156.411 139.65 166.2 164.545 166.2 190.35 c 1
 166.2 13.5498 l 2
 166.2 -12.9697 158.4 -37.1504 127.2 -37.1504 c 0
 106.136 -37.1504 61.2451 -3.34961 38.7998 -3.34961 c 0
 9.08496 -3.34961 -0.200195 -29.9844 -0.200195 -55.3496 c 1
 -0.200195 121.45 l 2
 -0.200195 160.06 15.4004 172.15 38.7998 172.15 c 0
 61.2793 172.15 106.118 139.65 127.2 139.65 c 0
EndSplineSet
EndChar

StartChar: OriscusCavumHole
Encoding: 165 -1 165
Width: 161
VWidth: 2537
Flags: W
HStem: -11.04 157.08
VStem: 20.5576 124.884<18.4545 118.142>
LayerCount: 2
Fore
SplineSet
105.722 121.649 m 0
 125.398 114.913 136.892 119.433 145.441 122.649 c 1
 145.441 27.0098 l 2
 145.441 7.10742 142.067 -17.0947 119.022 -11.04 c 0
 103.485 -6.95801 76.5156 9.0166 60.2783 14.3281 c 0
 40.1895 20.8984 29.1074 18.0879 20.5576 13.3018 c 1
 20.5576 107.989 l 2
 20.5576 136.966 29.6621 150.865 46.9775 146.04 c 0
 63.46 141.447 90.5117 126.856 105.722 121.649 c 0
EndSplineSet
EndChar

StartChar: OriscusCavumReversus
Encoding: 166 -1 166
Width: 166
VWidth: 2537
Flags: W
HStem: -55.3496 245.699
VStem: -0.200195 20.7588<-8.87926 122.649> 145.442 20.7578<13.3018 143.132>
LayerCount: 2
Fore
SplineSet
60.2783 121.649 m 4
 40.6016 114.913 29.1084 119.433 20.5586 122.649 c 5
 20.5586 27.0098 l 6
 20.5586 7.10742 23.9326 -17.0947 46.9775 -11.04 c 4
 62.5146 -6.95801 89.4844 9.0166 105.722 14.3281 c 4
 125.811 20.8984 136.893 18.0879 145.442 13.3018 c 5
 145.442 107.989 l 6
 145.442 136.966 136.338 150.865 119.022 146.04 c 4
 102.54 141.447 75.4883 126.856 60.2783 121.649 c 4
38.7998 139.65 m 0
 59.8818 139.65 104.721 172.15 127.2 172.15 c 0
 150.6 172.15 166.2 160.06 166.2 121.45 c 2
 166.2 -55.3496 l 1
 166.2 -29.9844 156.915 -3.34961 127.2 -3.34961 c 0
 104.755 -3.34961 59.8643 -37.1504 38.7998 -37.1504 c 0
 7.59961 -37.1504 -0.200195 -12.9697 -0.200195 13.5498 c 2
 -0.200195 190.35 l 1
 -0.200195 164.545 9.58887 139.65 38.7998 139.65 c 0
EndSplineSet
EndChar

StartChar: OriscusCavumReversusHole
Encoding: 167 -1 167
Width: 161
VWidth: 2537
Flags: W
HStem: -11.04 157.08
VStem: 20.5576 124.884<18.4545 118.142>
LayerCount: 2
Fore
SplineSet
60.2773 121.649 m 0
 75.4873 126.856 102.539 141.447 119.021 146.04 c 0
 136.337 150.865 145.441 136.966 145.441 107.989 c 2
 145.441 13.3018 l 1
 136.892 18.0879 125.81 20.8984 105.721 14.3281 c 0
 89.4834 9.0166 62.5137 -6.95801 46.9766 -11.04 c 0
 23.9316 -17.0947 20.5576 7.10742 20.5576 27.0098 c 2
 20.5576 122.649 l 1
 29.1074 119.433 40.6006 114.913 60.2773 121.649 c 0
EndSplineSet
EndChar

StartChar: OriscusCavumDeminutus
Encoding: 168 -1 168
Width: 168
VWidth: 2612
Flags: W
HStem: -30.1504 176.8<5.64289 68.2563>
VStem: 0 21.5576<-0.825308 127.774> 146.441 21.5586<22.7102 151.025>
LayerCount: 2
Fore
SplineSet
61.2773 126.774 m 4
 41.6006 120.038 30.1084 124.558 21.5576 127.774 c 5
 21.5576 36.8848 l 6
 21.5576 16.9824 23.4092 -10.4072 48.9268 -3.06543 c 4
 64.6211 1.4502 101.103 22.1982 117.171 28.0029 c 4
 135.359 34.5732 138.842 29.8633 144.542 22.2266 c 5
 145.513 26.6934 146.444 31.9248 146.441 42.8428 c 5
 146.441 113.114 l 6
 146.441 142.091 139.909 159.746 119.071 153.065 c 4
 102.512 147.757 76.4873 131.981 61.2773 126.774 c 4
116.5 -61.5 m 1
 116.5 -61.5 145.949 3.65039 128.2 3.65039 c 1
 99.4707 3.65039 66.3203 -30.1504 39.7998 -30.1504 c 0
 8.59961 -30.1504 0 -6.01953 0 20.5 c 2
 0 197 l 1
 0 174.771 8.59961 146.65 39.7998 146.65 c 0
 70.1924 146.65 97.5713 179.15 128.2 179.15 c 0
 151.6 179.15 168 166.609 168 128 c 2
 168 37 l 1
 168 -43 116.5 -61.5 116.5 -61.5 c 1
EndSplineSet
EndChar

StartChar: OriscusCavumDeminutusHole
Encoding: 169 -1 169
Width: 168
VWidth: 2612
Flags: W
HStem: -3.06543 156.131
VStem: 21.5576 124.884<31.1246 122.199>
LayerCount: 2
Fore
SplineSet
61.2773 126.774 m 4
 76.4873 131.981 102.512 147.757 119.071 153.065 c 4
 139.909 159.746 146.441 142.091 146.441 113.114 c 6
 146.441 42.8428 l 5
 146.444 31.9248 145.513 26.6934 144.542 22.2266 c 5
 138.842 29.8633 135.359 34.5732 117.171 28.0029 c 4
 101.103 22.1982 64.6211 1.4502 48.9268 -3.06543 c 4
 23.4092 -10.4072 21.5576 16.9824 21.5576 36.8848 c 6
 21.5576 127.774 l 5
 30.1084 124.558 41.6006 120.038 61.2773 126.774 c 4
EndSplineSet
EndChar
